<?xml version="1.0" encoding="UTF-8"?>
<svg id="Illustration" xmlns="http://www.w3.org/2000/svg" viewBox="0 0 1908.5 2536.31">
  <defs>
    <style>
      .cls-1 {
        fill: #a2bd5e;
      }

      .cls-2 {
        fill: #fff;
      }

      .cls-3 {
        fill: #1e4533;
      }
    </style>
  </defs>
  <g id="Starvation_and_malnutrition" data-name="Starvation and malnutrition">
    <g>
      <path class="cls-2" d="M1901.04,1644.23c-4.01,3.97-6.97,7.45-6.86,9.54l-.94.02-48.59.99-1.54.02-1182.16,24.1-88.77,1.81-199.14,4.06-160.84,3.28-143.69,2.91-65.93,1.35c-.11-.96-.21-1.9-.3-2.87.94-9.75,2.13-19.86,3.62-30.25.57-4.08,1.19-8.21,1.88-12.38,1.01-6.4,2.13-12.91,3.42-19.51l151.26-84.62c9.61-5.39,21.35-5.25,30.82.34l85.35,50.45,218.84-141.85c17.27-11.19,39.42-11.58,57.08-.99l222.14,191.2,23.53,20.25,24.79-20.55,135.57-112.43c15.73-13.05,38.57-12.89,54.14.37l96.61,82.28,177.08-105.3c12.15-8.44,27.91-9.7,41.21-3.28l111.13,53.61,89.89-94.04c6.88-7.2,16.4-11.44,26.37-11.44h53.04l44.53-44.37c20.98-20.98,54.94-21.14,76.32-.53l89.59,86.41,77.74,19.65c3.99,43.48,5.02,87.51,2.82,131.76Z"/>
      <path d="M2.59,1694.61c-1.16,0-2.14-.87-2.28-2.02-.12-.98-.21-1.94-.3-2.92-.02-.15-.02-.29,0-.44.98-10.18,2.21-20.39,3.63-30.35.58-4.09,1.2-8.24,1.89-12.43,1.09-6.9,2.21-13.31,3.43-19.58.13-.66.54-1.23,1.13-1.56l151.26-84.62c10.28-5.77,22.96-5.62,33.11.37l84.13,49.73,217.65-141.08c17.87-11.59,41.23-11.99,59.5-1.03.11.07.22.14.32.23l244.2,210.19,158.87-131.74c16.63-13.79,40.64-13.62,57.09.39l95.36,81.21,175.67-104.46c12.68-8.82,29.35-10.14,43.37-3.37l109.62,52.89,88.74-92.84c7.38-7.72,17.59-12.15,28.03-12.15h52.09l43.86-43.7c21.69-21.69,57.36-21.93,79.53-.55l89.16,85.98,77.15,19.5c.94.24,1.63,1.04,1.72,2.01,4.04,44.07,4.99,88.51,2.83,132.09-.03.57-.27,1.11-.68,1.52-5.72,5.66-6.18,7.39-6.18,7.79-.01,1.24-1,2.38-2.23,2.41l-.94.02L2.64,1694.61h-.05ZM4.6,1689.45c.02.18.03.35.05.53l656.26-13.37,1182.16-24.1,1.55-.02,47.71-.97c.83-2.09,2.86-4.66,6.46-8.29,2.07-42.55,1.16-85.91-2.71-128.94l-76.16-19.25c-.39-.1-.74-.3-1.03-.57l-89.59-86.41c-20.38-19.65-53.17-19.43-73.1.5l-44.53,44.38c-.43.43-1.01.67-1.62.67h-53.04c-9.19,0-18.2,3.91-24.71,10.73l-89.89,94.04c-.69.72-1.76.91-2.65.48l-111.13-53.61c-12.53-6.05-27.44-4.86-38.9,3.1l-177.21,105.39c-.84.5-1.91.41-2.66-.23l-96.61-82.28c-14.76-12.56-36.28-12.71-51.19-.35l-160.36,132.98c-.86.71-2.11.7-2.96-.03l-245.51-211.32c-16.76-9.97-38.12-9.56-54.48,1.04l-218.84,141.85c-.73.47-1.66.49-2.41.05l-85.35-50.45c-8.74-5.17-19.67-5.28-28.53-.32l-150.33,84.1c-1.13,5.88-2.18,11.91-3.2,18.39-.69,4.17-1.31,8.28-1.88,12.34-1.41,9.83-2.62,19.89-3.59,29.93ZM1901.04,1644.23h.02-.02Z"/>
    </g>
    <g>
      <path class="cls-2" d="M1895.7,1707.29c-4.47,37.4-11.33,74.83-20.68,112.14v.02c-10.85,43.32-25.09,86.43-42.93,129.08-17.79,42.56-38.52,83.08-61.85,121.44-21.55,35.54-45.36,69.23-71.09,101.01-40.75,50.33-86.36,95.9-135.73,136.42-.16.14-.32.27-.48.39-65.06,53.34-136.65,97.92-212.3,133.14-51.14,23.8-104.13,43.34-158.18,58.38-92.12,23.83-188.22,36.16-284.85,34.56-4.4-.07-8.81-.18-13.21-.32-101.79-3.03-204.02-21.62-302.6-58.7-25.27-9.49-50.29-20.2-75.01-32.17-52.28-25.32-100.62-55.04-144.97-88.33-48.02-36.03-91.4-76.27-130.16-119.68-29.38-32.93-56.11-67.67-80.19-103.81-27.79-41.74-52.05-85.3-72.78-130.04-20.43-44.05-37.42-89.25-51-134.93-15.39-51.71-26.37-104.06-33-156.05-.76-5.85-1.44-11.69-2.09-17.52l65.93-1.35h.02l143.67-2.91,160.84-3.28,199.14-4.06,88.77-1.81h.02l1182.14-24.1h.04l1.49-.02,48.59-.99.94-.02c1.08,17.96,1.58,35.82,1.51,53.52Z"/>
      <path d="M924.42,2536.31c-5.63,0-11.24-.05-16.86-.14-4.41-.07-8.83-.18-13.24-.32-105.83-3.15-207.89-22.95-303.34-58.85-25.43-9.55-50.73-20.41-75.2-32.26-51.19-24.78-100.09-54.58-145.35-88.56-46.96-35.24-90.87-75.61-130.49-119.99-28.98-32.49-56.03-67.5-80.39-104.07-27.39-41.14-51.94-84.99-72.96-130.35-20.17-43.49-37.37-88.99-51.12-135.24-15.25-51.25-26.38-103.87-33.07-156.41-.7-5.44-1.39-11.18-2.09-17.56-.07-.64.13-1.28.56-1.76.43-.48,1.03-.77,1.68-.78l658.36-13.41,1182.16-24.1,1.55-.02,49.51-1.01c1.19-.1,2.28.92,2.35,2.15,1.08,17.91,1.59,35.97,1.52,53.67,0,.09,0,.18-.02.26-4.51,37.67-11.47,75.45-20.71,112.3,0,.05-.02.1-.03.14-10.98,43.85-25.46,87.39-43.04,129.41-17.55,41.99-38.41,82.95-62,121.75-21.23,35-45.2,69.07-71.26,101.27-40.15,49.6-85.93,95.61-136.06,136.75-.18.15-.39.33-.6.48-64.26,52.7-135.86,97.59-212.67,133.36-51.02,23.75-104.36,43.44-158.53,58.51-89.31,23.1-179.6,34.78-268.65,34.78ZM5.15,1694.56c.6,5.37,1.2,10.29,1.81,14.98,6.66,52.3,17.74,104.68,32.92,155.69,13.68,46.03,30.8,91.32,50.88,134.62,20.92,45.15,45.35,88.8,72.61,129.74,24.24,36.38,51.16,71.23,79.99,103.56,39.42,44.15,83.1,84.32,129.82,119.37,45.03,33.8,93.68,63.45,144.6,88.1,24.35,11.79,49.52,22.59,74.82,32.09,94.98,35.72,196.54,55.43,301.86,58.56,4.4.14,8.79.25,13.18.32,94.1,1.57,189.73-10.04,284.24-34.49,53.89-15,106.99-34.6,157.79-58.24,76.47-35.6,147.73-80.29,211.81-132.83.23-.17.33-.27.45-.36,49.92-40.97,95.48-86.76,135.44-136.12,25.93-32.03,49.79-65.93,70.91-100.76,23.47-38.61,44.23-79.37,61.69-121.14,17.47-41.77,31.87-85.05,42.79-128.63,0-.05.02-.1.03-.15,9.19-36.66,16.13-74.24,20.61-111.72.06-16.84-.4-34-1.38-51.04L5.15,1694.56ZM1895.7,1707.29h.02-.02Z"/>
    </g>
    <g>
      <path d="M610.34,1934.33c-.75,0-1.48-.37-1.92-1.04l-43.46-66.34c-.34-.52-.45-1.16-.32-1.76.14-.61.52-1.13,1.05-1.45l57.2-34.73-192.54-2.19-88.37,63.38c-.66.47-1.52.56-2.27.23l-106.78-47.37-79.11,38.42c-.39.19-.83.27-1.27.21l-116.67-13.73c-1.26-.15-2.16-1.29-2.01-2.55.15-1.26,1.28-2.17,2.55-2.01l116,13.65,79.47-38.6c.61-.29,1.31-.31,1.93-.03l106.56,47.27,87.91-63.05c.4-.29.88-.4,1.36-.43l201.31,2.29c1.02.01,1.91.7,2.19,1.69.27.99-.15,2.03-1.02,2.57l-62.02,37.66,42.17,64.36c.69,1.06.4,2.48-.66,3.17-.39.25-.82.38-1.25.38Z"/>
      <path d="M724.72,1824.53c-.9,0-1.76-.54-2.12-1.42-.48-1.17.08-2.51,1.25-2.99l89.22-36.6c.37-.15.77-.2,1.17-.15l86.21,11.34,11.82-6.19c1.12-.59,2.51-.15,3.09.97.59,1.12.15,2.51-.97,3.09l-12.47,6.53c-.42.22-.89.3-1.36.24l-86.32-11.36-88.65,36.37c-.29.12-.58.17-.87.17Z"/>
      <path d="M960.35,1874.86c-.63,0-1.27-.26-1.72-.78-.84-.95-.75-2.4.2-3.24l38.39-33.87c.95-.83,2.39-.75,3.24.2.84.95.75,2.4-.2,3.24l-38.39,33.87c-.43.38-.98.57-1.52.57Z"/>
      <path d="M232.88,1842.83c-.58,0-1.16-.22-1.6-.65-.91-.88-.92-2.34-.04-3.24l62.53-64.05c.42-.43.99-.68,1.59-.69l184.53-4.58c.9-.08,1.78.52,2.15,1.36.37.85.2,1.84-.44,2.51l-50.33,52.62c-.88.91-2.33.95-3.24.07-.91-.88-.95-2.33-.07-3.24l46.49-48.6-178.05,4.41-61.88,63.39c-.45.46-1.05.69-1.64.69Z"/>
      <path d="M59.02,1870.28c-.3,0-.6-.06-.88-.18-1.17-.49-1.72-1.83-1.23-3l27.45-65.58c.21-.49.58-.9,1.06-1.15l79.3-41.18c.56-.29,1.23-.34,1.83-.12l102.18,36.6c1.19.43,1.81,1.74,1.39,2.93-.43,1.19-1.74,1.81-2.93,1.39l-101.24-36.26-77.68,40.33-27.13,64.81c-.37.88-1.22,1.41-2.12,1.41Z"/>
      <path d="M813.94,1787.93c-.62,0-1.23-.25-1.68-.73l-38.74-41.72-117.65,28.66c-.82.2-1.7-.07-2.27-.72l-81.37-92.87c-.84-.95-.74-2.4.21-3.24.95-.83,2.4-.74,3.24.21l80.45,91.83,117.61-28.65c.8-.19,1.66.06,2.22.67l38.41,41.37,72.49-41.79c1.1-.63,2.5-.26,3.13.84.63,1.1.26,2.5-.84,3.13l-74.07,42.7c-.36.21-.75.31-1.14.31Z"/>
      <path d="M1128.11,1858.08c-.86,0-1.68-.48-2.07-1.3l-52.92-110.37-130.12-33.29c-1.23-.31-1.97-1.56-1.65-2.79s1.56-1.97,2.79-1.65l131.16,33.55c.66.17,1.2.62,1.5,1.23l53.38,111.33c.55,1.14.07,2.51-1.07,3.06-.32.15-.66.23-.99.23Z"/>
      <path d="M1099.13,1800.13c-.75,0-1.48-.36-1.92-1.03-.69-1.06-.4-2.48.66-3.18l111.33-73.2c.6-.4,1.35-.48,2.02-.25l8.64,3.05c1.19.42,1.82,1.73,1.4,2.93-.42,1.19-1.73,1.82-2.93,1.4l-7.56-2.67-110.38,72.58c-.39.26-.83.38-1.26.38Z"/>
      <path d="M1788.47,1844.35c-.87,0-1.7-.5-2.08-1.32l-32.03-68.63c-.36-.76-.26-1.66.24-2.34l84.95-114.26-174.19,32.48c-.2.04-.41.05-.62.03l-155.99-13.62-48.06,49.53c-.88.91-2.34.93-3.24.05-.91-.88-.93-2.33-.05-3.24l48.82-50.31c.48-.5,1.14-.75,1.85-.69l156.77,13.68,177.87-33.17c.06-.01.13-.02.2-.03l1.57-.29c.94-.18,1.88.25,2.38,1.06s.44,1.85-.14,2.6l-.23.3-87.37,117.51,30.65,65.66,84.49-22.07c.24-.09.51-.14.79-.14,1.27,0,2.29,1.02,2.29,2.28,0,1.04-.7,1.98-1.71,2.24l-86.54,22.61c-.19.05-.39.07-.58.07Z"/>
      <path d="M676.9,2346.88c-.11,0-.22,0-.33-.02l-281.36-41.35c-.81-.12-1.49-.66-1.79-1.41l-27.56-68.55c-.39-.97-.07-2.08.77-2.7l103.05-75.95c.39-.29.87-.45,1.36-.45h164.48c.17,0,.35.02.52.06l223.25,51.68c.78.18,1.42.76,1.66,1.53.25.77.08,1.61-.45,2.21l-72.05,82.58c-.21.24-.47.43-.75.57l-109.8,51.58c-.3.14-.64.22-.97.22ZM397.18,2301.16l279.38,41.05,108.74-51.08,69.22-79.34-219.27-50.76h-163.46l-101.01,74.45,26.41,65.68Z"/>
      <path d="M591.12,2477.38c-.95,0-1.84-.59-2.17-1.54-.42-1.2.22-2.5,1.41-2.92l76.04-26.45-39.42-55.84c-.66-.94-.53-2.22.31-3l48.04-44.61c.57-.53,1.39-.73,2.13-.54l160.77,41.05,143.1-27.26,124.47-90.83-72.92-79.55-173.78,27.26c-1.28.2-2.42-.66-2.62-1.91-.19-1.25.66-2.42,1.91-2.62l175-27.45c.75-.12,1.53.15,2.05.72l75.49,82.35c.44.48.66,1.13.59,1.78-.07.65-.4,1.24-.93,1.62l-126.96,92.64c-.28.2-.59.34-.92.4l-144.11,27.45c-.33.06-.67.05-1-.03l-160.06-40.86-45.65,42.39,40.02,56.69c.41.59.53,1.34.31,2.02-.22.69-.75,1.23-1.43,1.46l-78.92,27.45c-.25.09-.5.13-.75.13Z"/>
      <path d="M371.52,2357.28c-.32,0-.65-.07-.97-.22-1.15-.54-1.64-1.9-1.11-3.05l24.02-51.47c.54-1.15,1.9-1.64,3.05-1.11,1.15.54,1.64,1.9,1.11,3.05l-24.02,51.47c-.39.83-1.22,1.32-2.08,1.32Z"/>
      <path d="M337.21,2048.47c-.56,0-1.1-.2-1.52-.58l-123.53-109.8c-.6-.53-.88-1.34-.73-2.13.15-.79.69-1.44,1.44-1.73l126.96-48.04c.32-.12.64-.18.99-.14l85.78,6.86c.11,0,.22.02.33.05l195.58,44.61c.94.21,1.65.99,1.76,1.95.12.96-.37,1.89-1.23,2.33l-140.68,72.06c-.16.08-.34.15-.51.19l-144.11,34.31c-.17.04-.35.06-.53.06ZM218.04,1937.18l119.8,106.49,142.68-33.97,134.82-69.06-189.27-43.17-85.1-6.81-122.93,46.51Z"/>
      <path d="M471.03,2161.95c-.2,0-.39-.03-.58-.08l-144.11-37.99c-1.12-.29-1.85-1.38-1.69-2.53l10.29-75.49c.13-.94.82-1.7,1.74-1.92l144.11-34.31c.49-.12.99-.07,1.45.13l109.8,48.04c.94.41,1.49,1.39,1.35,2.4l-12.81,96.32c-.15,1.11-1.08,1.95-2.2,1.99l-107.29,3.43s-.05,0-.07,0ZM329.46,2119.97l141.83,37.39,105.01-3.36,12.32-92.69-107.51-47.04-141.84,33.77-9.81,71.92Z"/>
      <path d="M591.12,2062.2c-1.16,0-2.15-.87-2.28-2.05-.13-1.26.78-2.39,2.04-2.52l126.21-13.43,94.69-59.46-71.67-41.26-118.14-1.37c-1.27-.01-2.28-1.05-2.27-2.32.02-1.26,1.04-2.27,2.29-2.27h.03l118.73,1.38c.39,0,.78.11,1.12.31l75.49,43.46c.7.4,1.13,1.14,1.15,1.94.02.8-.39,1.56-1.07,1.99l-98.37,61.77c-.3.19-.63.3-.98.34l-126.74,13.48c-.08,0-.16.01-.24.01Z"/>
      <path d="M1033.75,2185.72c-1.19,0-2.2-.92-2.28-2.13l-4.62-66.09-221.54,15.82-102.61,41.05c-1.16.47-2.51-.1-2.98-1.28-.47-1.18.1-2.51,1.28-2.98l102.94-41.18c.22-.09.45-.14.69-.16l224.19-16.01c.61-.04,1.21.16,1.67.56.46.4.74.97.79,1.57l4.78,68.38c.09,1.26-.86,2.36-2.13,2.45-.05,0-.11,0-.16,0Z"/>
      <path d="M161.97,2007.54s-.09,0-.14,0l-75.49-4.58c-1.26-.08-2.23-1.16-2.15-2.43.08-1.26,1.2-2.23,2.43-2.15l74.26,4.5,50.98-67.88c.76-1.01,2.2-1.21,3.21-.46,1.01.76,1.22,2.2.46,3.21l-51.72,68.87c-.43.58-1.12.92-1.83.92Z"/>
      <path d="M159.68,2133.36c-1.15,0-2.14-.86-2.28-2.03-.15-1.26.75-2.4,2.01-2.55l77.78-9.15c.09-.01.17-.02.26-.02l89.46-.25h0c1.26,0,2.29,1.02,2.29,2.29,0,1.27-1.02,2.3-2.29,2.3l-89.33.25-77.65,9.13c-.09.01-.18.02-.27.02Z"/>
      <path d="M239.75,2238.59c-.64,0-1.29-.27-1.74-.8-.83-.96-.71-2.41.25-3.23l32.03-27.45c.58-.49,1.37-.67,2.1-.47l96.2,26.3c1.22.33,1.94,1.59,1.61,2.82-.34,1.22-1.61,1.94-2.82,1.61l-95.03-25.98-31.1,26.66c-.43.37-.96.55-1.49.55Z"/>
      <path d="M962.64,2119.63c-.29,0-.58-.05-.86-.17l-153.27-61.77c-.94-.38-1.52-1.34-1.42-2.35l6.86-70.92c.12-1.23,1.2-2.15,2.42-2.07l152.4,9.1,94.59-74.79-103.35-41.78-106.51,9.06-111.68,59.26c-1.12.59-2.51.17-3.1-.95-.59-1.12-.17-2.51.95-3.1l112.09-59.48c.27-.14.57-.23.88-.26l107.52-9.15c.35-.03.72.02,1.05.16l107.52,43.46c.76.31,1.29.99,1.41,1.8.11.81-.21,1.62-.85,2.12l-98.37,77.78c-.44.35-1.01.53-1.56.49l-151.06-9.02-6.49,67.01,151.68,61.12c1.17.47,1.74,1.81,1.27,2.98-.36.89-1.22,1.44-2.13,1.44Z"/>
      <path d="M852.83,1884.01c-.62,0-1.24-.25-1.69-.74l-51.92-56.44-168.26,2.27h-.03c-1.25,0-2.28-1.01-2.29-2.26-.02-1.27,1-2.31,2.26-2.32l169.28-2.29c.66-.03,1.28.26,1.72.74l52.61,57.19c.86.93.8,2.38-.14,3.24-.44.41-1,.61-1.55.61Z"/>
      <path d="M1353.4,2445.1c-.32,0-.66-.07-.97-.22l-1.88-.88c-1.15-.54-1.64-1.9-1.1-3.05.54-1.15,1.9-1.64,3.05-1.1l1.88.88c1.15.54,1.64,1.9,1.1,3.05-.39.83-1.22,1.32-2.08,1.32Z"/>
      <path d="M1351.14,2443.8c-.64,0-1.27-.26-1.72-.78l-.5-.57-71.19-81.64c-.53-.61-.7-1.45-.45-2.21.25-.77.88-1.35,1.67-1.53l223.26-51.5c.17-.04.34-.06.52-.06h92.85c1.27,0,2.29,1.03,2.29,2.29s-1.03,2.29-2.29,2.29h-92.59l-219.28,50.59,69.16,79.32c.84.95.74,2.4-.21,3.24-.43.38-.98.57-1.51.57Z"/>
      <path d="M1155.93,2509.41c-.47,0-.94-.14-1.35-.44l-126.96-92.64c-.53-.38-.86-.98-.93-1.62-.06-.65.15-1.3.59-1.78l75.49-82.35c.52-.57,1.29-.83,2.05-.72l174.99,27.45c1.25.2,2.11,1.37,1.91,2.62-.2,1.25-1.34,2.11-2.62,1.91l-173.78-27.26-72.92,79.55,124.88,91.13c1.02.75,1.25,2.18.5,3.2-.45.62-1.15.94-1.85.94Z"/>
      <path d="M1699.16,2173.28c-.18,0-.37-.02-.55-.07l-42.26-10.43c-.17-.04-.34-.1-.5-.18l-16.15-8.27c-1.13-.58-1.57-1.96-.99-3.09.58-1.13,1.96-1.57,3.09-1l15.91,8.15,42,10.37c1.23.3,1.98,1.55,1.68,2.78-.26,1.04-1.19,1.74-2.22,1.74Z"/>
      <path d="M1613.36,2068.64c-1.05,0-1.99-.72-2.23-1.78-.28-1.23.49-2.46,1.72-2.75l9.77-2.23c1.25-.29,2.46.49,2.75,1.73.28,1.23-.49,2.46-1.72,2.75l-9.77,2.23c-.17.04-.34.06-.51.06Z"/>
      <path d="M1770.24,2072.27c-.31,0-.63-.06-.93-.2l-57.75-25.76-87.92,20.05c-1.25.28-2.47-.49-2.75-1.73-.28-1.23.49-2.46,1.72-2.75l88.66-20.22c.48-.11.99-.06,1.44.14l58.45,26.07c1.16.52,1.68,1.87,1.16,3.03-.38.85-1.22,1.36-2.1,1.36Z"/>
      <path d="M1596.31,2310.64s-.04,0-.07,0l-39.65-1.12c-1.16-.03-2.11-.92-2.22-2.07l-9.56-98.63c-.1-.99.45-1.92,1.36-2.32l109.8-48.04c.46-.2.98-.25,1.47-.13l42.26,10.43c1.23.3,1.98,1.55,1.68,2.78-.3,1.23-1.54,1.99-2.77,1.68l-41.51-10.25-107.56,47.06,9.21,94.96,37.63,1.07c1.27.03,2.26,1.09,2.23,2.36-.04,1.24-1.05,2.23-2.29,2.23Z"/>
      <path d="M1547.1,2210.89c-.08,0-.16,0-.24-.01l-126.74-13.48c-.35-.04-.68-.15-.98-.34l-98.37-61.77c-.68-.43-1.09-1.18-1.07-1.99.02-.81.45-1.54,1.15-1.94l75.49-43.46c1.1-.63,2.5-.25,3.13.84.63,1.1.26,2.5-.84,3.13l-72.19,41.56,94.69,59.46,126.21,13.43c1.26.13,2.17,1.26,2.04,2.52-.13,1.18-1.12,2.05-2.28,2.05Z"/>
      <path d="M1104.47,2334.42c-.05,0-.11,0-.16,0-1.27-.09-2.22-1.18-2.13-2.45l4.78-68.38c.04-.61.32-1.17.79-1.57.46-.4,1.07-.6,1.67-.56l224.19,16.01c.24.02.47.07.69.16l102.94,41.18c1.18.47,1.75,1.81,1.28,2.98-.47,1.18-1.82,1.74-2.98,1.28l-102.61-41.04-221.54-15.82-4.62,66.09c-.09,1.21-1.09,2.13-2.29,2.13Z"/>
      <path d="M1175.58,2268.33c-.91,0-1.77-.54-2.13-1.44-.47-1.17.1-2.51,1.27-2.98l151.68-61.12-6.49-67.01-151.07,9.02c-.57.04-1.12-.14-1.56-.49l-98.37-77.78c-.64-.51-.96-1.32-.85-2.12.12-.81.65-1.49,1.41-1.8l107.52-43.46c.33-.14.69-.19,1.05-.16l107.52,9.15c.31.03.61.12.88.26l112.09,59.48c1.12.59,1.55,1.98.95,3.1-.59,1.12-1.98,1.54-3.1.95l-111.68-59.26-106.51-9.06-103.35,41.78,94.59,74.79,152.4-9.1c1.25-.09,2.3.84,2.42,2.07l6.86,70.92c.1,1.01-.48,1.97-1.42,2.35l-153.27,61.77c-.28.11-.57.17-.86.17Z"/>
      <path d="M1748.82,2060.91c-.86,0-1.69-.49-2.08-1.32l-39.59-84.07-141.65,1.61h-.03c-1.25,0-2.28-1.01-2.29-2.27-.01-1.27,1-2.3,2.27-2.32l143.13-1.63c.78,0,1.72.5,2.1,1.32l40.22,85.4c.54,1.15.05,2.51-1.1,3.05-.32.15-.65.22-.97.22Z"/>
      <path d="M1507.29,1977.8h-.03l-149.09-2.01c-1.27-.02-2.28-1.06-2.26-2.32.02-1.26,1.04-2.26,2.29-2.26h.03l149.09,2.01c1.27.02,2.28,1.06,2.26,2.32-.02,1.26-1.04,2.26-2.29,2.26Z"/>
      <path d="M1285.39,2032.7c-.56,0-1.11-.2-1.55-.61-.93-.86-.99-2.31-.14-3.24l19.08-20.74c.86-.93,2.32-.99,3.24-.13.93.86.99,2.31.14,3.24l-19.08,20.74c-.45.49-1.07.74-1.69.74Z"/>
      <path d="M1177.87,2023.55c-.54,0-1.08-.19-1.52-.57l-35.98-31.75c-.95-.84-1.04-2.29-.2-3.24.84-.95,2.29-1.04,3.24-.2l35.98,31.75c.95.84,1.04,2.29.2,3.24-.45.51-1.09.78-1.72.78Z"/>
      <path d="M909.89,2532.61c-.26,0-.51-.04-.76-.13l-156.96-55.36c-.73-.26-1.29-.87-1.47-1.63-.18-.76.04-1.55.57-2.12l85.24-89.09c.87-.91,2.33-.95,3.24-.07.92.88.95,2.33.07,3.24l-82.78,86.52,152.27,53.7,118.07-114.86c.91-.88,2.36-.86,3.24.04.88.91.86,2.36-.04,3.24l-119.09,115.85c-.43.42-1.01.65-1.6.65Z"/>
      <path d="M1018.3,1957.21c-1.24,0-2.26-.99-2.29-2.23-.03-1.27.96-2.32,2.23-2.36l60.61-1.7c1.25-.05,2.32.96,2.36,2.23.03,1.27-.96,2.32-2.23,2.36l-60.61,1.7s-.04,0-.07,0Z"/>
      <path d="M1128.1,1858.08c-1.24,0-2.26-.99-2.29-2.23-.03-1.27.97-2.32,2.23-2.35l97.39-2.5s.04,0,.06,0c1.24,0,2.26.99,2.29,2.23.03,1.27-.97,2.32-2.23,2.35l-97.39,2.5s-.04,0-.06,0Z"/>
      <path d="M1547.09,1922.84c-1.12,0-2.09-.81-2.26-1.95-.19-1.25.67-2.42,1.92-2.61l43.38-6.62,30.1-68.81-163.66,1.23h-.02c-1.26,0-2.28-1.02-2.29-2.28,0-1.27,1.01-2.3,2.28-2.31l167.19-1.26c.75-.04,1.5.38,1.93,1.03.43.65.5,1.47.19,2.18l-32.03,73.2c-.32.72-.98,1.23-1.76,1.35l-44.63,6.81c-.12.02-.23.03-.35.03Z"/>
      <path d="M1722.89,2012.11c-.6,0-1.2-.23-1.65-.7-.88-.91-.86-2.36.05-3.24l99.45-96.44-33.81-67.61-95.61-16.43-81.62,49.88c-1.08.66-2.49.32-3.15-.76-.66-1.08-.32-2.49.76-3.15l82.35-50.33c.48-.29,1.04-.4,1.58-.3l97.6,16.78c.72.12,1.34.58,1.66,1.23l35.08,70.15c.45.89.26,1.98-.45,2.67l-100.66,97.61c-.45.43-1.02.65-1.6.65Z"/>
      <path d="M1623.76,1842.83c-.95,0-1.83-.59-2.17-1.54l-22.88-65.58c-.26-.74-.12-1.56.37-2.18l64.05-80.83c.56-.71,1.5-1.02,2.37-.8l125.06,32.03c1.23.31,1.97,1.56,1.65,2.79s-1.56,1.97-2.79,1.65l-123.61-31.66-62.35,78.67,22.46,64.39c.42,1.2-.22,2.5-1.41,2.92-.25.09-.5.13-.75.13Z"/>
      <path d="M1474.3,1842.83c-1.05,0-2-.73-2.24-1.81l-14.85-68.32-85.91,1.48-40.29,26.36c-1.06.69-2.48.4-3.18-.66-.69-1.06-.4-2.48.66-3.17l40.84-26.72c.36-.24.78-.37,1.22-.37l88.45-1.52c1.18,0,2.05.74,2.28,1.81l15.25,70.15c.27,1.24-.52,2.46-1.75,2.73-.17.04-.33.05-.49.05Z"/>
      <path d="M1388.9,1769.63c-.77,0-1.53-.39-1.96-1.1-.66-1.08-.32-2.49.77-3.15l70.15-42.7c.63-.38,1.4-.44,2.08-.15l96.9,40.88,60.26-15.06c1.23-.31,2.47.44,2.78,1.67.31,1.23-.44,2.47-1.67,2.78l-61,15.25c-.48.12-.99.08-1.45-.11l-96.52-40.72-69.15,42.09c-.37.23-.78.33-1.19.33Z"/>
      <path d="M295.41,1778.78c-.21,0-.43-.03-.64-.09-1.22-.35-1.91-1.63-1.56-2.84l13.77-47.41-151.74-60.7-147.78,43.66c-1.22.36-2.49-.34-2.85-1.55-.36-1.21.33-2.49,1.55-2.85l148.54-43.89c.49-.15,1.02-.12,1.5.07l154.41,61.76c1.1.44,1.68,1.64,1.35,2.77l-14.35,49.41c-.29,1-1.21,1.65-2.2,1.65Z"/>
      <path d="M480.48,1768.92c-.49,0-.98-.15-1.39-.47l-132.98-101.32c-1.01-.77-1.2-2.21-.43-3.21.77-1.01,2.2-1.2,3.22-.43l131.44,100.14,92.07-86.27c.92-.87,2.38-.82,3.24.11.87.92.82,2.37-.11,3.24l-93.48,87.59c-.44.41-1,.62-1.57.62Z"/>
      <path d="M1028.97,2117.34c-1.2,0-2.21-.93-2.29-2.14-.08-1.26.88-2.36,2.14-2.44l93.03-6.1c1.31-.07,2.35.88,2.44,2.14.08,1.26-.88,2.36-2.14,2.44l-93.03,6.1c-.05,0-.1,0-.15,0Z"/>
      <path d="M774.29,1745.22c-.88,0-1.73-.52-2.11-1.38l-26.79-61.43c-.51-1.16.02-2.51,1.19-3.02,1.17-.51,2.51.03,3.02,1.18l26.79,61.43c.51,1.16-.02,2.51-1.19,3.02-.3.13-.61.19-.91.19Z"/>
    </g>
    <g>
      <path class="cls-2" d="M1892.83,1634.65l-1882.54,12.2c-4.69-.04-7.73,11.91-3.05,12.2l1887.31,56.92-1.72-81.32Z"/>
      <path d="M1894.55,1718.26s-.05,0-.07,0L7.17,1661.34c-2.24-.14-4.71-1.86-4.55-6.29.15-4.32,3.01-10.59,7.7-10.5l1882.5-12.2h.02c1.25,0,2.27,1,2.29,2.24l1.72,81.32c.01.63-.23,1.24-.68,1.68-.43.43-1.01.66-1.61.66ZM10.3,1649.14c-.54,0-1.48.86-2.21,2.47-1.18,2.58-.98,4.81-.64,5.2l1884.75,56.78-1.61-76.65-1880.28,12.19h0Z"/>
    </g>
    <g>
      <g>
        <g>
          <g>
            <g>
              <path class="cls-2" d="M1630.13,2431.3c-3.21-2.7-4.18-7.49-2.23-11.07,5.46-9.9,20.28-47.39,38.56-60.52,4.99-3.59,11.8-2.26,15.45,2.97l82.03,117.38c3.77,5.4,2.1,13.13-3.52,15.95-6.74,3.37-17.52,5.05-33.41-2.31-25.72-11.9-55.18-29.16-64.41-34.65-1.62-.97-32.47-27.75-32.47-27.75Z"/>
              <path d="M1747.64,2501.15c-5.86,0-13.03-1.41-21.59-5.37-25.95-12.01-56.02-29.65-64.62-34.76-1.67-.99-25.5-21.65-32.79-27.98-4.04-3.4-5.22-9.38-2.75-13.91,1.06-1.93,2.49-4.92,4.29-8.72,7.42-15.6,19.84-41.72,34.95-52.57,2.84-2.04,6.29-2.85,9.72-2.26,3.59.61,6.77,2.67,8.95,5.78l82.02,117.38c2.26,3.24,3,7.31,2.02,11.17-.91,3.59-3.24,6.56-6.4,8.14-3.35,1.68-7.92,3.09-13.81,3.09ZM1672.67,2359.99c-1.73,0-3.42.54-4.87,1.58-14.15,10.15-26.25,35.6-33.48,50.81-1.84,3.86-3.29,6.91-4.41,8.95-1.42,2.61-.68,6.22,1.69,8.21,0,0,.02.02.03.02,12.09,10.49,30.63,26.49,32.19,27.54,8.5,5.06,38.4,22.59,64.15,34.51,12.27,5.68,23.13,6.48,31.42,2.34,1.96-.98,3.42-2.86,4-5.16.65-2.57.17-5.27-1.33-7.42l-82.02-117.38c-1.47-2.1-3.59-3.48-5.96-3.89-.47-.08-.94-.12-1.4-.12Z"/>
            </g>
            <g>
              <path class="cls-2" d="M1765.35,2488.96s.09.06.13.04c.8-.31,1.55-.64,2.26-.99,5.62-2.82,7.3-10.55,3.52-15.95l-82.03-117.38c-3.66-5.23-10.46-6.56-15.45-2.97-.93.67-1.85,1.37-2.75,2.09-.05.04-.06.11-.02.17l94.33,134.99Z"/>
              <path d="M1765.5,2491.29c-.77,0-1.56-.37-2.01-.99,0,0-.01-.02-.02-.02l-94.33-134.99c-.7-1-.48-2.53.48-3.28.93-.73,1.87-1.46,2.83-2.15,2.85-2.04,6.3-2.84,9.72-2.26,3.59.61,6.77,2.67,8.95,5.78l82.03,117.38c2.26,3.24,3,7.31,2.02,11.17-.91,3.59-3.24,6.56-6.4,8.14-.77.38-1.59.74-2.46,1.08-.26.1-.53.15-.81.15ZM1674.07,2354.35l92.14,131.85c.17-.08.33-.16.49-.24,1.99-1,3.41-2.83,4-5.16.65-2.57.17-5.27-1.33-7.42l-82.03-117.38c-1.47-2.1-3.59-3.48-5.96-3.89-2.21-.38-4.43.14-6.27,1.46-.35.25-.7.51-1.05.77Z"/>
            </g>
            <path d="M1683.95,2454.16c-.06,0-.13,0-.19,0-1.26-.1-2.2-1.21-2.1-2.47l1.88-22.98c.11-1.26,1.24-2.21,2.47-2.1,1.26.1,2.2,1.21,2.1,2.47l-1.88,22.98c-.1,1.2-1.1,2.11-2.28,2.11Z"/>
            <path d="M1699.33,2462.99c-.06,0-.13,0-.19,0-1.26-.1-2.2-1.21-2.1-2.47l1.88-22.98c.1-1.26,1.25-2.21,2.47-2.1,1.26.1,2.2,1.21,2.1,2.47l-1.88,22.98c-.1,1.2-1.1,2.11-2.28,2.11Z"/>
          </g>
          <g>
            <polygon class="cls-2" points="1601.79 2458.01 1677.03 2458.01 1649.94 2401.3 1587.4 2400.55 1601.79 2458.01"/>
            <path d="M1677.03,2460.31h-75.24c-1.05,0-1.97-.72-2.22-1.74l-14.39-57.47c-.17-.69-.02-1.42.43-1.98.43-.55,1.1-.87,1.8-.87h.03l62.54.75c.87.01,1.67.52,2.04,1.3l27.09,56.72c.34.71.29,1.55-.13,2.21-.42.67-1.15,1.07-1.94,1.07ZM1603.58,2455.72h69.81l-24.9-52.15-58.14-.7,13.23,52.84Z"/>
          </g>
        </g>
        <g>
          <g>
            <path class="cls-2" d="M1187.68,2397.1l56.94-.07c4.04,0,7.68,2.72,9.22,6.93,5.07,13.84,15.39,46.19,14.04,76.89-.37,8.39-6.54,14.96-13.99,14.97l-167.09.22c-7.68.01-13.53-7.9-12-16.39,1.83-10.17,8.17-23.55,26.48-35.59,29.64-19.5,66.9-39.01,78.65-45.05,2.44-1.25,5.07-1.9,7.75-1.9Z"/>
            <path d="M1086.79,2498.33c-4.04,0-7.93-1.88-10.67-5.15-3.18-3.8-4.48-8.88-3.57-13.93,1.77-9.85,7.98-24.28,27.47-37.1,29.93-19.69,67.93-39.55,78.86-45.17,2.78-1.43,5.74-2.15,8.8-2.16l56.94-.07h.01c5.03,0,9.49,3.31,11.37,8.43,4.72,12.9,15.56,46.31,14.18,77.78-.42,9.61-7.57,17.16-16.28,17.17l-167.09.22h-.02ZM1187.68,2399.39c-2.32,0-4.58.56-6.7,1.65-10.88,5.59-48.7,25.36-78.44,44.92-18.13,11.93-23.87,25.12-25.48,34.09-.66,3.66.3,7.46,2.57,10.18,1.9,2.27,4.55,3.47,7.17,3.51l167.09-.22c6.25,0,11.39-5.62,11.7-12.78,1.35-30.64-9.27-63.36-13.9-76-1.2-3.3-3.97-5.42-7.06-5.42h0l-56.94.07ZM1187.68,2397.1h.02-.02Z"/>
          </g>
          <g>
            <path class="cls-2" d="M1075.68,2476.23c-.06,0-.12.05-.14.11-.3,1.13-.55,2.24-.74,3.3-1.53,8.49,4.32,16.4,12,16.39l167.09-.22c7.45,0,13.62-6.59,13.99-14.97.07-1.57.09-3.14.1-4.71,0-.08-.06-.15-.14-.15l-192.16.25Z"/>
            <path d="M1086.79,2498.33c-4.04,0-7.93-1.88-10.67-5.16-3.18-3.8-4.48-8.88-3.57-13.93.2-1.12.47-2.29.78-3.48.27-1,1.31-1.82,2.35-1.82l192.16-.25h0c.61,0,1.26.32,1.69.75.43.43.74,1.09.74,1.7,0,1.61-.03,3.21-.1,4.81-.42,9.61-7.57,17.15-16.28,17.17l-167.09.22h-.02ZM1077.37,2478.52c-.12.52-.22,1.03-.31,1.53-.66,3.66.3,7.47,2.57,10.18,1.9,2.27,4.55,3.47,7.17,3.51l167.09-.22c6.25,0,11.39-5.62,11.7-12.78.04-.82.06-1.64.07-2.46l-188.3.24Z"/>
          </g>
        </g>
        <g>
          <path class="cls-3" d="M1450.81,2185.54c-1.86-.84-181.1-154.78-234.39-142.7-45.13,10.23-38.09,233.03-36.72,289,1.34,54.5,316.16-155.4,323.61-169.75,7.36-14.19-44.41,27.08-52.5,23.45Z"/>
          <path class="cls-3" d="M1209.35,2297.93c-23.29,21.09-82.31,70.56-75.69,117.52,6.98,49.46,20.55,63.54,279.83,59.64,10.36-.72,210.12-21.84,210.12-21.84l-.32-73.99s-83.98-22.38-194.49-16.76c-4.44.23-5.3-7.13-.87-7.56,60.29-5.87,120.68-9.7,148.86-34.23,74.93-65.23,40.38-121.16,27.96-170.18-.72-2.83-83.34-45.46-130.45-1.97-24.3,22.43-106.52,60.78-138.58,81.5,0,0-96.29,40.64-126.37,67.88Z"/>
          <path class="cls-2" d="M1260.98,2393.91c-.98,0-1.89-.64-2.19-1.62-.37-1.21.31-2.49,1.52-2.86,1.24-.38,125.2-37.71,263.35-28.8,1.26.08,2.22,1.17,2.14,2.44-.08,1.26-1.11,2.24-2.44,2.14-137.32-8.86-260.49,28.23-261.71,28.61-.22.07-.45.1-.67.1Z"/>
          <path class="cls-2" d="M1184.12,2323.44c-.61,0-1.21-.24-1.67-.72-.87-.92-.83-2.37.09-3.24,28.75-27.21,126.67-81.39,180.64-99.96,1.2-.42,2.5.23,2.91,1.42.41,1.2-.22,2.5-1.42,2.91-53.55,18.42-150.57,72.06-178.98,98.95-.44.42-1.01.63-1.58.63Z"/>
        </g>
      </g>
      <g>
        <g>
          <path class="cls-2" d="M1031.55,1775.42c25.08,51.52,97.1,113.43,117.37,127.68,43.5,30.04,187.42-8.62,187.42-8.62l15.08,93.64s-60.17,9.38-222.32-20.8c-36.13-22.91-91.06-143.65-127.46-168.12l-.12-.09c-5.3-2.99-28.84,8.04-62.22-17.55-9.86-7.56-18.49-19.51-22.45-26.25-6.18-10.49-10.92-35.06-10.92-35.06-2.07-5.83,3.87-11.1,8.89-7.94,6.38,4.02,20.22,20.3,20.22,20.3,0,0,8.55,11.21,21.42,21.99,6.58,4.59,22.93,9.11,49.05,5.54,7.37-1.01,19.44,1.71,26.04,15.29Z"/>
          <path d="M1322.85,1991.74c-32.5,0-94.19-3.55-194.17-22.15-.29-.05-.56-.16-.81-.32-18.65-11.83-41.12-47.41-64.9-85.09-22.1-35.01-44.96-71.21-62.61-83.07-.75-.43-3.56-.26-6.28-.09-10.74.66-30.71,1.89-56.18-17.63-9.68-7.42-18.46-19.13-23.03-26.91-6.11-10.37-10.7-33.29-11.16-35.63-1.23-3.68-.13-7.57,2.83-9.95,2.81-2.25,6.45-2.45,9.5-.53,6.6,4.16,20.17,20.08,20.74,20.75.16.2,8.64,11.24,21.14,21.71,6.27,4.36,22.55,8.4,47.27,5.02,8.81-1.21,21.53,2.41,28.42,16.56,25.2,51.78,98.21,113.86,116.63,126.81,11.72,8.09,31.17,11.02,53.15,11.02,57.07,0,131.32-19.7,132.35-19.97.63-.17,1.3-.06,1.84.29.55.35.92.92,1.02,1.56l15.08,93.64c.1.6-.05,1.22-.41,1.71-.36.49-.9.82-1.5.92-.23.03-9.19,1.34-28.93,1.34ZM1129.96,1965.16c142.58,26.51,206.41,22.25,218.82,20.98l-14.3-88.79c-19.85,5.14-145.62,36.12-186.86,7.65-18.64-13.11-92.53-75.98-118.13-128.57-5.81-11.94-16.39-15.02-23.67-14.02-26,3.56-43.22-.73-50.67-5.93-13.07-10.94-21.57-22.01-21.93-22.48-.06-.06-13.61-15.96-19.62-19.75-1.37-.86-2.94-.78-4.19.23-1.11.89-2.13,2.73-1.32,5,.04.11.07.22.09.33.05.24,4.74,24.31,10.64,34.33,4.37,7.42,12.72,18.58,21.87,25.6,24.1,18.48,42.97,17.32,53.11,16.69,4.15-.25,6.89-.42,8.84.68.06.04.25.16.31.2,18.42,12.38,40.51,47.37,63.9,84.41,22.32,35.34,45.39,71.88,63.12,83.42Z"/>
        </g>
        <g>
          <path class="cls-2" d="M1444.45,2213.45c-2.69-17.14-7.32-58.59-11.71-75.21-19.68-74.58-61.74-111.06-72.51-124.3-17.5-21.51-28.41-46.11-29.96-74.58-1.29-23.69-1.48-48.22,15.53-61.11,40.01-30.33,27.91-28.65,66.23-28.94,50.67-.39,103.06,51,142.94,159.46,18.44,50.15,44.67,88.18,67.14,136.42l.09.19c2.25,5.31,1.48,11.5-1.98,16-13.41,17.42-32.56,46.53-120.61,69.74-43.71,11.52-52.81-2.71-55.15-17.65Z"/>
          <path d="M1472.42,2237.61c-8.11,0-14.53-1.59-19.39-4.76-7.86-5.13-9.95-13.33-10.85-19.05-.8-5.13-1.76-12.27-2.87-20.54-2.56-19.12-5.75-42.91-8.79-54.44-16.66-63.13-49.59-98.83-65.41-115.99-2.81-3.05-5.04-5.46-6.66-7.45-18.73-23.02-28.98-48.56-30.47-75.9-1.39-25.61-1.18-49.71,16.43-63.06,8.33-6.32,14.32-11.18,19.13-15.09,17.27-14.02,17.67-14.15,42.99-14.29l5.47-.03c55.21-.46,106.79,56.74,145.11,160.96,11.14,30.3,24.91,55.72,39.48,82.64,9.21,17,18.73,34.59,27.58,53.6.01.02.11.24.12.26,2.58,6.1,1.71,13.11-2.28,18.29l-1.7,2.22c-13.93,18.27-34.98,45.89-120.14,68.33-10.84,2.86-20.07,4.29-27.77,4.29ZM1446.71,2213.09c1.21,7.71,4.01,12.77,8.83,15.92,8.2,5.36,22.82,5.32,43.47-.13,83.64-22.04,104.12-48.91,117.67-66.68l1.71-2.24c2.94-3.81,3.6-9.19,1.69-13.71-8.85-19-18.34-36.52-27.51-53.47-14.65-27.07-28.5-52.63-39.75-83.24-36.94-100.43-88.02-157.96-140.23-157.96-.18,0-.36,0-.54,0l-5.48.03q-23.95.13-40.12,13.26c-4.84,3.93-10.86,8.82-19.25,15.18-15.82,11.99-15.94,34.83-14.62,59.16,1.44,26.35,11.34,51,29.45,73.26,1.53,1.88,3.71,4.24,6.47,7.23,16.08,17.43,49.53,53.7,66.48,117.93,3.12,11.81,6.33,35.76,8.9,55,1.1,8.24,2.06,15.36,2.86,20.44Z"/>
        </g>
        <g>
          <path class="cls-2" d="M1614.93,2371.97s-134.39-304.8-191.97-399.46c-9.54-15.68-33.33-44.31-31.24-66.44,3.39-36.01,45.19-51.18,68.97-25.44.25.27.5.55.76.83,16.42,18.26,20.56,38.64,38.11,72.93,20.67,40.39,31.07,83.9,43.5,117.05,27.74,73.96,37.61,112.38,66.81,189.61,23.23,61.44,54.66,125.93,48.65,162.25-5.05,30.52,8.54,47.06,4.44,52.71-11.45,15.78-44.13-14.58-50.68-31.56-9.45-24.52,5.2-67.2,2.65-72.46Z"/>
          <path d="M1654.13,2482.69c-.75,0-1.52-.05-2.31-.15-15.88-2.08-36.59-24.05-41.69-37.29-6.52-16.92-2.07-41.62.87-57.96,1.09-6.07,2.33-12.95,1.84-14.36-.01-.02,0,0-.02-.03-1.34-3.05-134.98-305.74-191.83-399.19-1.91-3.13-4.46-6.9-7.17-10.88-11.03-16.25-26.14-38.5-24.4-56.97,1.7-18,12.95-32.63,29.36-38.18,15.53-5.25,32.23-.89,43.58,11.39.26.28.52.57.78.86,10.78,11.99,16.46,25.03,23.63,41.53,4.01,9.22,8.56,19.67,14.81,31.88,14.08,27.52,23.51,56.74,31.83,82.51,4.01,12.41,7.79,24.13,11.78,34.78,13.46,35.89,22.88,63.93,32,91.04,9.72,28.91,19.77,58.8,34.8,98.56,4.88,12.91,10.19,26.11,15.32,38.88,19.69,48.98,38.3,95.25,33.44,124.56-2.99,18.05.76,31.18,3.24,39.87,1.84,6.44,3.05,10.7.8,13.82-2.56,3.53-6.22,5.35-10.68,5.35ZM1617.01,2371.01c1.09,2.34.33,6.96-1.5,17.08-2.85,15.84-7.16,39.78-1.1,55.5,4.99,12.95,25.07,32.7,38.01,34.39,3.81.49,6.68-.59,8.68-3.35.95-1.31-.18-5.27-1.49-9.86-2.59-9.08-6.51-22.8-3.35-41.87,4.64-28.03-13.73-73.72-33.17-122.1-5.14-12.79-10.46-26.01-15.36-38.97-15.06-39.83-25.13-69.77-34.86-98.71-9.11-27.08-18.52-55.08-31.95-90.9-4.03-10.75-7.83-22.52-11.85-34.98-8.26-25.61-17.63-54.64-31.55-81.83-6.31-12.34-10.89-22.86-14.93-32.14-7.28-16.75-12.55-28.85-22.84-40.3l-.73-.8c-10.25-11.1-24.73-14.9-38.75-10.17-14.67,4.96-24.73,18.09-26.26,34.26-1.59,16.83,12.99,38.29,23.63,53.96,2.74,4.03,5.33,7.85,7.29,11.08,56.86,93.48,190.12,395.23,192.09,399.7Z"/>
        </g>
      </g>
      <g>
        <path d="M1353.23,1676.94c17.95,11.33,10.47,24.93,35.6,53.7,18.46,21.13,32.03,24.7,33.92,40.29,1.7,14.04-7.51,25.93-13.6,33.78-27.63,35.63-72.41,40.03-99.9,42.73-22.25,2.19-52.74,5.19-59.09-8.86-6.27-13.87,18.25-28.37,16.25-57.51-1.61-23.44-18.39-27.2-17.92-48.31.6-27.31,29.23-46.09,33.83-49.1,18.42-12.09,48.82-20.68,70.92-6.72Z"/>
        <g>
          <g>
            <path class="cls-2" d="M1388.06,1841.22c-11.14-15.69-40.04-42.98-49.56-51.82-1.63-1.52-1.84-4.13-.46-5.91,3.6-4.66,9.26-13.93,6.65-23.69-1.31-4.91-5.24-11.87-9.79-11.64-3.2.16-6.56,3.87-8.38,9.91-.96,3.2-4.9,3.99-6.86,1.36-.02-.03-.04-.05-.06-.08-1.95-2.61-3.88-5.57-4.81-8.13-.63-1.73-2.32-2.73-4.05-2.6-34.67,2.55-20.54-43.98-42.72-34.99-.87.35-1.58,1.1-2.03,1.98-2.64,5.22-4.68,7.66-6.7,12.84-4.25,10.9-1.95,35.44-11.19,47-1.02,1.27-1.17,3.14-.43,4.61,1.95,3.9,5.51,4.09,8.55,5.48,1.23.56,2.05,1.85,2.2,3.28.65,5.89,3.63,19.29,5.2,29.67.98,6.44,6.43,11.08,12.5,10.5,4.93-.47,10.05-1.58,15.35-3.42,1.04-.36,2.16-.27,3.11.28,5.99,3.44,30.31,27.05,39.25,58.04,1.81,6.26,14.54,12.83,41.45.14,38.39-18.11,12.77-42.82,12.77-42.82Z"/>
            <path d="M1348.75,1893.57c-4.79,0-8.13-.97-10.26-1.93-3.56-1.61-6-4.13-6.85-7.1-8.88-30.8-32.86-53.63-38.19-56.69-.47-.27-.92-.2-1.23-.1-5.34,1.85-10.68,3.04-15.88,3.53-7.2.68-13.82-4.78-14.98-12.44-.75-4.93-1.84-10.69-2.81-15.76-1.1-5.82-2.06-10.84-2.41-14-.07-.66-.42-1.24-.88-1.45-.67-.31-1.38-.55-2.08-.79-2.53-.87-5.68-1.96-7.57-5.75-1.14-2.28-.86-5.12.69-7.07,5.28-6.62,6.56-18.41,7.69-28.81.73-6.76,1.42-13.15,3.16-17.6,1.3-3.34,2.62-5.62,4.03-8.03.87-1.5,1.77-3.05,2.76-5.02.72-1.43,1.87-2.52,3.21-3.07,3.92-1.59,7.15-1.75,9.91-.49,4.76,2.18,6.77,8.1,8.9,14.37,3.71,10.91,7.5,22.18,24.59,20.95,2.82-.22,5.42,1.48,6.37,4.11.71,1.95,2.27,4.56,4.49,7.54.58.77,1.22.78,1.55.72.63-.11,1.13-.59,1.34-1.28,2.08-6.9,6.08-11.32,10.46-11.54,6.16-.35,10.64,7.81,12.12,13.34,2.87,10.7-3.18,20.69-7.05,25.68-.65.85-.56,2.12.2,2.83,8.8,8.17,38.32,36.01,49.75,52.01,1.4,1.41,10.62,11.23,8.64,23.26-1.5,9.11-8.96,16.89-22.18,23.12-12.16,5.74-21.14,7.45-27.52,7.45ZM1292.74,1823.08c1.04,0,2.08.27,2.99.8,5.65,3.24,31.05,27.28,40.31,59.39.47,1.63,2.05,3.16,4.34,4.2,3.43,1.55,13.58,4.11,33.94-5.49,11.76-5.55,18.35-12.17,19.61-19.69,1.72-10.35-7.37-19.32-7.46-19.41-.1-.1-.19-.21-.28-.32-11.09-15.62-40.5-43.34-49.25-51.47-2.5-2.32-2.82-6.27-.71-8.99,3.35-4.33,8.6-12.89,6.25-21.69-1.29-4.8-4.78-10.05-7.46-9.94-1.92.1-4.7,2.97-6.29,8.28-.71,2.35-2.6,4.06-4.93,4.48-2.28.4-4.56-.52-5.96-2.4-2.59-3.46-4.32-6.4-5.19-8.8-.26-.71-.92-1.16-1.73-1.1-20.63,1.5-25.61-13.26-29.27-24.05-1.81-5.31-3.51-10.32-6.47-11.68-1.55-.7-3.6-.52-6.28.57-.31.13-.62.46-.84.88-1.05,2.08-2.03,3.77-2.89,5.25-1.37,2.35-2.55,4.38-3.72,7.39-1.52,3.89-2.17,9.98-2.87,16.43-1.19,11.02-2.55,23.51-8.66,31.18-.45.56-.52,1.46-.17,2.16,1.01,2.02,2.47,2.6,4.96,3.47.84.29,1.68.58,2.49.95,1.93.88,3.28,2.84,3.53,5.12.33,2.98,1.31,8.16,2.36,13.65.97,5.11,2.07,10.91,2.84,15.93.8,5.26,5.18,9.03,10.01,8.57,4.83-.46,9.82-1.57,14.82-3.3.66-.23,1.34-.34,2.02-.34Z"/>
          </g>
          <path d="M1291.47,1827.88c-.97,0-1.87-.62-2.18-1.59-.39-1.21.27-2.5,1.48-2.89,15.73-5.08,24.66-19.08,24.75-19.22.67-1.07,2.09-1.4,3.16-.72,1.07.67,1.4,2.09.72,3.16-.4.63-9.92,15.56-27.22,21.15-.24.07-.47.11-.71.11Z"/>
        </g>
      </g>
    </g>
    <g>
      <g>
        <g>
          <g>
            <polygon class="cls-2" points="154.88 2312.19 158.62 2386.42 204.8 2394.79 208.9 2307.24 154.88 2312.19"/>
            <path d="M204.8,2397.08c-.14,0-.27-.01-.41-.04l-46.17-8.37c-1.05-.19-1.83-1.08-1.88-2.14l-3.75-74.22c-.06-1.23.86-2.29,2.08-2.4l54.03-4.95c.66-.07,1.31.17,1.79.63.48.46.74,1.1.71,1.76l-4.11,87.54c-.03.66-.34,1.28-.86,1.69-.41.33-.91.5-1.43.5ZM160.82,2384.49l41.81,7.58,3.86-82.3-49.21,4.51,3.55,70.21Z"/>
          </g>
          <g>
            <path d="M206.08,2523.72c-19.49,1.88-51.36,2.73-88.36-4.83-12.13-2.48-19.62-15.65-16.08-28.36,9.89-35.4,27.21-102.62,52.96-132.82l5.23,17.42,9.08-15.64c1.24-2.14,3.36-3.52,5.7-3.71l12.48-1.5c3.83-.31,7.25,2.59,7.85,6.67l2.21,14.99,13.14-19.12,14.56,142.87c.92,12.19-7.44,22.94-18.77,24.03Z"/>
            <path class="cls-2" d="M163.84,2502.76c-15.26,0-32.66-1.63-49.61-6.76-1.21-.37-1.9-1.65-1.53-2.86.37-1.21,1.64-1.9,2.86-1.53,45.07,13.64,93.41,1.87,93.89,1.75,1.23-.31,2.47.44,2.78,1.67.3,1.23-.44,2.47-1.67,2.78-.31.08-20.33,4.95-46.72,4.95Z"/>
            <path class="cls-2" d="M188.34,2447.88h-.04l-43.61-.81c-1.27-.02-2.27-1.07-2.25-2.34.02-1.27,1.13-2.23,2.34-2.25l43.61.81c1.27.02,2.27,1.07,2.25,2.34-.02,1.25-1.05,2.25-2.29,2.25Z"/>
          </g>
        </g>
        <g>
          <g>
            <polygon class="cls-2" points="374.28 2302.53 376.18 2440.91 432.07 2443.94 439.73 2306.08 374.28 2302.53"/>
            <path d="M432.07,2446.23s-.09,0-.13,0l-55.89-3.03c-1.2-.06-2.15-1.05-2.17-2.26l-1.91-138.38c0-.63.25-1.25.71-1.69.46-.44,1.08-.67,1.71-.64l65.45,3.55c.61.03,1.18.31,1.59.76.41.45.61,1.05.58,1.66l-7.65,137.86c-.07,1.22-1.08,2.17-2.29,2.17ZM378.45,2438.74l51.46,2.79,7.4-133.28-60.71-3.29,1.84,133.78Z"/>
          </g>
          <g>
            <path d="M353.72,2507.11c-.62,10.19,5.03,21.86,14.57,22.3,61.06,2.78,191.6,10.56,203.68-17.77,8.62-20.21-8.43-33.34-50.35-58.99-33.19-20.3-62.9-45.33-75.84-47.96-12.94-2.64-39.16,36.66-39.16,36.66l-38.9-20.1s-10.87,34.21-14.01,85.87Z"/>
            <path class="cls-2" d="M468.45,2513.02c-45.02,0-91.01-4.18-94.38-4.49-1.26-.12-2.19-1.23-2.07-2.49.12-1.26,1.22-2.19,2.49-2.07,1.46.14,146.09,13.27,174.46-6.31,1.04-.72,2.47-.46,3.19.58.72,1.04.46,2.47-.58,3.19-13.07,9.02-47.8,11.59-83.11,11.59Z"/>
            <path class="cls-2" d="M452.7,2477.64c-.64,0-1.27-.26-1.72-.78-.84-.95-.74-2.4.21-3.24l29.72-26.02c.95-.83,2.4-.74,3.24.22.84.95.74,2.4-.21,3.24l-29.72,26.02c-.44.38-.97.57-1.51.57Z"/>
          </g>
        </g>
        <path class="cls-3" d="M323.3,1643.09s-213.04,6.34-191.03-65.94c14-45.96,168.18-2.29,213.15,12.47,7.68,2.52,189.41-15.09,189.41-15.09l-49.3,99.88-162.23-31.31Z"/>
        <g>
          <path class="cls-2" d="M175.6,1554.06s-34.89,351.44-49.41,467.22c-14.52,115.78,6.97,304.33,6.97,304.33l86.5-.2s13.17-180.3,22.67-263.93c1.79-15.8,6.01-31.21,12.37-45.78,12.79-29.32,35.67-86.23,45.74-139.28,14.38-75.72,56.83-194.24,56.83-194.24,0,0,1.65,624.71,2.32,672.13,0,0,67.5,6.9,92.52-8.18,0,0,53.27-238.56,52.69-358.24-.57-119.67,20.12-415.8,20.12-415.8l-349.31-18.03Z"/>
          <path d="M393.83,2358.22c-18.2,0-33.19-1.49-34.49-1.62-1.16-.12-2.04-1.08-2.06-2.25-.6-43.02-2.04-567.65-2.28-658.76-11.25,32.57-40.87,121.03-52.31,181.27-10.12,53.3-33.1,110.44-45.89,139.77-6.34,14.53-10.44,29.71-12.19,45.12-9.38,82.62-22.53,262.03-22.66,263.83-.09,1.2-1.08,2.12-2.28,2.13l-86.5.2h0c-1.17,0-2.15-.87-2.28-2.03-.22-1.89-21.35-190.15-6.97-304.87,14.35-114.43,49.05-463.65,49.4-467.16.12-1.22,1.21-2.12,2.4-2.06l349.31,18.03c.61.03,1.19.31,1.6.77.41.46.61,1.07.57,1.68-.21,2.96-20.68,297.42-20.11,415.63.57,118.56-52.22,356.36-52.75,358.75-.14.61-.52,1.14-1.05,1.46-13.55,8.17-38.61,10.12-59.45,10.12ZM361.84,2352.22c11.24.97,65.97,4.93,88.23-7.56,3.71-16.81,52.97-242.57,52.42-356.75-.54-112.79,18.02-385.53,19.96-413.64l-344.8-17.8c-2.97,29.88-35.43,355.36-49.2,465.11-13.51,107.76,4.5,281.01,6.75,301.75l82.31-.19c1.52-20.54,13.68-184.07,22.52-261.9,1.8-15.87,6.02-31.49,12.54-46.44,12.72-29.15,35.56-85.93,45.59-138.79,14.25-75.02,56.49-193.4,56.92-194.59.38-1.05,1.44-1.67,2.55-1.49,1.1.19,1.9,1.14,1.9,2.25.02,6.17,1.62,609.62,2.29,670.04Z"/>
        </g>
      </g>
      <g>
        <g>
          <path class="cls-2" d="M602.07,1122.56s65.09,40.7,96,123.6c30.9,82.9,36.55,77.97,69.98,93.99,33.43,16.01,58.5,20.91,58.5,20.91l-4.78,64.48s-158.07,8.51-233.04-93.4c-74.97-101.91,13.35-209.57,13.35-209.57Z"/>
          <path d="M813.83,1427.97c-33.35,0-161.85-5.96-226.96-94.48-39.3-53.43-33.53-108.37-21.78-145.06,12.7-39.61,34.98-67.05,35.2-67.32.73-.89,2.01-1.1,2.99-.49.66.41,66.11,42.07,96.93,124.74,27.54,73.87,34.35,76.97,59.69,88.49,2.81,1.28,5.84,2.65,9.13,4.23,32.74,15.68,57.7,20.68,57.95,20.73,1.14.22,1.93,1.26,1.85,2.42l-4.78,64.48c-.08,1.15-1.01,2.06-2.16,2.12-.21.01-3.07.14-8.05.14ZM602.57,1125.65c-4.86,6.38-22.48,30.93-33.15,64.33-16.57,51.83-9.45,99.2,21.15,140.8,68.82,93.55,210.47,93.04,229.06,92.54l4.48-60.44c-6.63-1.52-29.08-7.26-57.05-20.66-3.27-1.56-6.27-2.93-9.05-4.19-26.03-11.83-33.88-15.41-62.09-91.06-27.47-73.68-82.89-114.18-93.35-121.32Z"/>
        </g>
        <path class="cls-3" d="M352.52,1054.74s-80.68,46.22-110.48,119.42c-17.88,43.91-12.62,119.18-18.61,161.96-15.98,114.08-90.15,238.21-90.15,238.21,0,0,13.12-17.58,58.79,17.14,42.53,32.33,81.95,56.67,170.52,57.49,80.1.73,128.2-7.49,155.55-15.25,18.12-5.14,29.63-22.9,26.81-41.57-4.07-26.96-9.05-87.31-8.09-127.31,1.34-56.13,39.88-160.88,39.88-160.88,0,0,123.78-52.97,132.11-121.98,0,0-65.13-116.89-179.14-119.65-106.13-2.57-177.19-7.57-177.19-7.57Z"/>
        <path class="cls-3" d="M359.92,1242.28s-38.59,64,14.95,102.81l-207.98,71.41-18.07-92.09c-22.46-119.9,52.68-237.85,171.43-264.38,11.5-2.57,23.14-4.39,34.81-5.42l4.85,187.67Z"/>
        <path class="cls-2" d="M363.54,1347.86c-.67,0-1.33-.29-1.78-.85-32.63-40.14-16.05-144.28-15.32-148.7.21-1.25,1.38-2.1,2.63-1.89,1.25.2,2.1,1.38,1.89,2.63-.17,1.06-16.98,106.52,14.36,145.06.8.98.65,2.43-.33,3.23-.43.35-.94.51-1.44.51Z"/>
        <g>
          <g>
            <path class="cls-2" d="M406.12,1042.14l45.44-116.06,72.68,46.17-27.54,73.34c-3.9,10.67-.14,22.64,9.15,29.14l8.39,5.87c4.32,3.02,2.5,9.81-2.75,10.26l-40.48,3.46c-38.8,3.31-77.61-6.26-110.44-27.24-4.71-3.01-3.33-10.25,2.16-11.29,16.78-3.2,41.4-8.68,43.41-13.65Z"/>
            <path d="M456.15,1097.26c-34.11,0-68-9.81-96.83-28.24-2.95-1.88-4.43-5.32-3.76-8.76.67-3.48,3.25-6.05,6.72-6.72,38.22-7.28,41.47-11.75,41.72-12.26l45.43-116.03c.25-.64.77-1.13,1.42-1.34.65-.21,1.36-.12,1.94.24l72.67,46.17c.92.58,1.3,1.73.92,2.74l-27.54,73.34c-3.53,9.67-.11,20.55,8.32,26.46l8.39,5.87c2.77,1.94,3.99,5.31,3.11,8.58-.88,3.27-3.62,5.56-6.98,5.85l-40.48,3.46c-5.01.43-10.03.64-15.04.64ZM452.68,929.51l-44.42,113.47s0,.02-.01.02c-.77,1.91-2.83,6.99-45.11,15.05-1.62.31-2.77,1.46-3.08,3.08-.32,1.63.33,3.14,1.73,4.03,32.22,20.59,70.93,30.15,109.01,26.89l40.48-3.46c2.17-.18,2.8-1.94,2.94-2.47.3-1.1.11-2.63-1.31-3.63l-8.39-5.87c-10.13-7.09-14.24-20.17-9.99-31.81l26.9-71.62-68.75-43.68ZM406.12,1042.14h.02-.02Z"/>
          </g>
          <path d="M628.68,858.72c-18.7-11.9-5.37,21.6-65.32-39.21-23.88-24.22-27.78,17.14-33.99,10.87-22.93-23.14-23.76-27.5-39-31.42-10.09-2.6-30.45,9.33-34.08,22.9-11.86,44.27-2.46,37.06-9.4,77.58-4.88,28.46-2.19,39.45,5.43,48.25,7.71,8.9,21.95-.1,31.09,8.98,11.83,11.76-4.28,34.53,3.81,52.22,5.1,11.15,23.47,25.27,64.1,27.51,6.58.36,12.5-4.06,14.05-10.53,1.98-8.29,4.42-18.77,5.92-28.98,7.16-48.67-2.14-65.77,8.78-73.32,16.73-11.57,20.04,11.3,46.06,2.04,16.17-5.76,28.16-50.6,2.55-66.9Z"/>
          <g>
            <path class="cls-2" d="M523.15,890.5l-.16,13.44c-.07,6.33-.58,12.64-1.52,18.9-1.76,11.74-4,32.01-5.39,43.39-4.48,36.6,50.25,24.19,50.25,24.19l7.08-6.81,6.04.74c1.17.14,4.97.24,6.05-.22,2.7-1.16,4.2-3.87,3.95-6.62-1.37-15.03-8.69-35.63-2.13-60.72,0,0-31.06-7.79-64.17-26.28Z"/>
            <path d="M547.12,994.76c-9.38,0-20-1.62-26.76-7.73-5.46-4.93-7.66-12.02-6.55-21.07.38-3.13.83-6.92,1.31-11.03,1.25-10.64,2.81-23.88,4.09-32.43.92-6.13,1.42-12.38,1.49-18.59l.16-13.44c0-.81.44-1.55,1.14-1.96.7-.41,1.56-.41,2.27-.02,32.47,18.14,63.3,25.98,63.61,26.06.59.15,1.1.53,1.42,1.06.31.53.4,1.16.25,1.75-4.78,18.26-1.96,34.35.3,47.27.79,4.51,1.53,8.76,1.89,12.66.35,3.82-1.79,7.41-5.33,8.93-2.03.87-7.18.4-7.23.39l-4.96-.6-6.29,6.06c-.3.29-.68.49-1.08.58-.69.16-9.47,2.1-19.72,2.1ZM525.4,894.35l-.11,9.61c-.07,6.41-.59,12.88-1.54,19.21-1.27,8.48-2.82,21.68-4.07,32.28-.48,4.11-.93,7.92-1.31,11.05-.93,7.58.73,13.18,5.07,17.11,11.39,10.3,37.47,5.57,41.78,4.7l6.6-6.36c.5-.48,1.18-.71,1.87-.62l6.04.74c1.28.15,4.24.14,4.92-.07,1.65-.71,2.68-2.44,2.51-4.28-.34-3.71-1.07-7.88-1.84-12.29-2.25-12.85-5.03-28.73-.77-47.02-7.41-2.07-32.43-9.64-59.16-24.06Z"/>
          </g>
          <path class="cls-2" d="M511.11,931s.42-32.31-14.2-29.39c-14.62,2.92-14.19,38.51,14.2,29.39Z"/>
        </g>
        <g>
          <g>
            <path class="cls-2" d="M871.67,1375.49s5.08-71.62-36.68-75.14c-41.76-3.52-50.47,25.2-50.47,25.2,0,0-1.36-48.86-35.75-58.68-45.91-13.11-71.32,33.48-71.32,33.48,0,0-15.56-17.83-34.24-13.17s-41.92,32.44-54.16,88.31h282.62Z"/>
            <path d="M871.67,1377.78h-282.62c-.69,0-1.35-.31-1.79-.86-.43-.54-.6-1.25-.45-1.93,13-59.36,37.37-85.44,55.84-90.04,15.87-3.95,29.3,6.83,34.38,11.69,6.4-9.85,31.74-43.57,72.36-31.98,27.33,7.8,34.71,38.25,36.7,52.91,5.86-8.76,19.72-21.97,49.09-19.51,43.51,3.67,38.99,74.57,38.77,77.59-.09,1.2-1.08,2.13-2.29,2.13ZM591.92,1373.19h277.56c.39-11.7.42-67.6-34.68-70.56-39.41-3.33-48,23.31-48.08,23.58-.33,1.07-1.38,1.77-2.5,1.61-1.11-.15-1.95-1.08-1.99-2.21-.01-.47-1.73-47.3-34.09-56.54-43.58-12.44-67.67,30.54-68.68,32.38-.36.66-1.02,1.1-1.76,1.18-.76.08-1.48-.2-1.98-.77-.15-.17-14.89-16.71-31.96-12.45-16.09,4.01-39.14,28.38-51.85,83.79Z"/>
          </g>
          <polygon class="cls-3" points="590.92 1433.61 881.2 1433.61 913.59 1351.39 558.54 1351.39 590.92 1433.61"/>
        </g>
        <g>
          <path class="cls-2" d="M897.24,1396.91l-10.16,25.76-64.5-11.9c-10.45-1.7-20.47,5.53-21.58,15.99-.83,7.8,1.24,16.78,11.15,24.17,11.66,8.69,47.64,21.65,76.57,26.99,32.38,5.98,34.78-41.01,26.77-64.49-6.24-18.3-18.25-16.53-18.25-16.53Z"/>
          <path d="M894.06,1480.72c-1.85,0-3.77-.18-5.76-.55-28.35-5.23-65.3-18.3-77.53-27.41-9.01-6.71-13.18-15.79-12.06-26.25.59-5.54,3.4-10.49,7.91-13.93,4.62-3.53,10.57-5.01,16.32-4.08l62.69,11.57,9.46-24.01c.3-.76.99-1.31,1.8-1.43.57-.08,13.98-1.82,20.76,18.05,5.26,15.42,7.08,45.15-5.72,59.98-4.6,5.32-10.7,8.06-17.88,8.06ZM819.55,1412.81c-3.62,0-7.22,1.19-10.14,3.42-3.5,2.67-5.67,6.49-6.13,10.77-.95,8.88,2.5,16.31,10.24,22.09,11.78,8.78,47.82,21.45,75.62,26.58,8.1,1.5,14.61-.52,19.33-6,11.12-12.88,9.96-40.51,4.85-55.5-4.4-12.9-11.6-14.79-14.51-15l-9.6,24.34c-.41,1.02-1.48,1.61-2.55,1.41l-64.49-11.9c-.87-.14-1.74-.21-2.62-.21Z"/>
        </g>
        <g>
          <path class="cls-2" d="M343.96,1357.16c5.77,14.61,13.83,25.36,19.57,32.53,17.91,22.39,49.87,27.19,92.19,31.85,62.37,6.88,94.75,1.86,133.68.48,51.03-1.82,70.92-54.04,80.38-55.56,19.8-3.19,2.92,49.58,2.92,49.58-2.41,3.31-.92,8.01,2.95,9.32,0,0,22.6,14.99,42.17,4.88l20.52-13.75c6.38-1.71,13.36,1.35,15.75,7.52,1.01,2.61.76,9.68-.07,12.57-3.21,11.19-6.54,50.27-55.32,56.23-37.13,4.53-58.4-18.21-72.72-19.29-10.44-.79-133.66,58.44-264.14,31.69-38.82-7.96-64.3-16.79-90.95-34.47-27.32-18.13-45.09-43.93-56.62-70.5l129.68-43.07Z"/>
          <path d="M433.01,1514.49c-23.12,0-47.2-2.04-71.62-7.04-41.45-8.5-66.32-17.93-91.75-34.81-24.62-16.33-43.95-40.39-57.45-71.5-.26-.59-.25-1.26,0-1.85.26-.59.76-1.04,1.37-1.24l129.67-43.07c1.16-.39,2.41.2,2.86,1.33,5.46,13.84,13.15,24.34,19.23,31.94,17.12,21.39,48.37,26.35,90.65,31.01,48.01,5.3,78.17,3.51,107.34,1.79,8.43-.5,17.14-1.01,26.02-1.33,35.15-1.25,55.25-27.39,67.27-43.01,5.73-7.45,9.19-11.94,12.83-12.53,4.62-.74,7.34,1.14,8.81,2.85,8.89,10.33-2.06,45.69-3.34,49.69-.07.23-.19.45-.33.65-.71.98-.91,2.21-.55,3.37.37,1.15,1.23,2.04,2.38,2.43.19.06.37.15.53.26.22.14,21.65,14.07,39.74,4.82l20.41-13.68c.21-.14.44-.25.68-.31,7.63-2.05,15.75,1.87,18.48,8.91,1.25,3.23.88,10.92,0,14.03-.33,1.15-.66,2.59-1.04,4.27-3.28,14.39-10.97,48.08-56.21,53.6-25.22,3.08-43.41-6.12-56.69-12.84-6.48-3.28-12.07-6.1-16.48-6.44-1.63-.09-9.09,2.41-17.75,5.35-32.5,11-98.51,33.35-175.06,33.35ZM217.4,1401.61c13.09,29.17,31.5,51.77,54.77,67.21,24.9,16.52,49.33,25.77,90.14,34.14,104.02,21.33,202.31-11.95,244.28-26.16,12.12-4.1,17.15-5.75,19.56-5.57,5.32.4,11.29,3.42,18.2,6.92,13.47,6.81,30.24,15.3,54.07,12.38,42.04-5.13,48.96-35.48,52.29-50.07.4-1.77.75-3.3,1.1-4.51.73-2.54.93-9.06.14-11.11-1.85-4.78-7.37-7.46-12.66-6.22l-20.19,13.53c-.07.05-.15.09-.22.13-19.66,10.15-41.57-3.14-44.25-4.85-2.4-.91-4.2-2.81-4.99-5.28-.77-2.44-.41-5.01.98-7.13,4.5-14.21,9.53-38.7,4.13-44.98-.67-.77-1.88-1.76-4.61-1.31-1.85.3-5.95,5.64-9.93,10.8-12.5,16.26-33.44,43.47-70.74,44.79-8.82.31-17.51.83-25.91,1.32-29.36,1.73-59.72,3.52-108.11-1.81-43.39-4.78-75.51-9.93-93.73-32.7-5.99-7.48-13.49-17.7-19.1-31.11l-125.25,41.6Z"/>
        </g>
      </g>
    </g>
    <g>
      <g>
        <path class="cls-2" d="M1018.12,2390.65c0,20.28-64.91,36.73-144.98,36.73s-146.29-15.14-146.29-35.43,66.22-38.03,146.29-38.03,144.98,16.44,144.98,36.73Z"/>
        <path d="M873.14,2429.67c-72.03,0-148.58-13.22-148.58-37.72,0-22.23,66.65-40.32,148.58-40.32,72.39,0,147.27,14.6,147.27,39.02s-74.88,39.02-147.27,39.02ZM873.14,2356.21c-82.42,0-144,18.87-144,35.74,0,16,57.86,33.14,144,33.14s142.69-17.81,142.69-34.44-57.34-34.44-142.69-34.44Z"/>
      </g>
      <g>
        <g>
          <path class="cls-2" d="M912.11,2396.27c28.2-39.14,48.83-79.44,61.81-120.92,1.3-4.17,4.13-9.67,7.97-11.75,11.54-6.24,22.81.17,20.61,13.4-20.49,45.11-43.34,87.91-74.13,127.77,0,0,11.06,15.71,3.51,41.07-7.55,25.36-51.26,40.47-62.05,32.37-10.79-8.09-12.95-42.63,2.65-63.41,15.6-20.78,39.63-18.54,39.63-18.54Z"/>
          <path d="M878.76,2482.71c-4.39,0-7.94-.88-10.31-2.66-5.92-4.44-9.56-15.47-9.49-28.79.07-14.25,4.33-28.03,11.69-37.83,14.23-18.96,34.85-19.67,40.34-19.52,27.6-38.52,48.04-78.63,60.75-119.25,1.49-4.76,4.66-10.69,9.07-13.08,6.62-3.58,13.52-3.59,18.47-.06,4.62,3.3,6.62,9.07,5.49,15.85-.03.2-.09.39-.17.57-24.05,52.93-46.74,92.17-73.43,126.96,2.62,4.59,9.47,19.59,2.92,41.59-4.96,16.67-23.94,28.27-38.69,33.13-6.2,2.05-11.9,3.07-16.63,3.07ZM910.18,2398.5c-5.61,0-23.6,1.35-35.86,17.68-6.77,9.02-10.7,21.82-10.77,35.1-.06,11.54,3.02,21.62,7.65,25.1,3.55,2.66,12.69,2.22,22.75-1.11,13.7-4.52,31.27-15.12,35.73-30.09,7.15-24.02-3.08-38.95-3.18-39.1-.58-.82-.56-1.93.06-2.72,26.84-34.75,49.59-73.94,73.73-127.03.73-4.85-.6-8.87-3.67-11.07-3.5-2.5-8.6-2.36-13.63.36-3,1.62-5.61,6.4-6.87,10.42-12.97,41.44-33.87,82.35-62.13,121.57-.47.66-1.25,1.02-2.07.94-.04,0-.66-.05-1.73-.05Z"/>
        </g>
        <g>
          <path class="cls-2" d="M912.11,2396.27c28.47-39.52,49.23-80.22,62.18-122.12,1.3-4.22,5.38-9.6,9.3-11.62,10.94-5.64,20.34.87,19.1,13.01-.1.97-.4,1.92-.81,2.81-20.34,44.62-43.04,86.97-73.52,126.42,0,0,11.06,15.71,3.51,41.07-7.55,25.36-51.26,40.47-62.05,32.37-10.79-8.09-12.95-42.63,2.65-63.41,15.6-20.78,39.63-18.54,39.63-18.54Z"/>
          <path d="M878.76,2482.71c-4.39,0-7.94-.88-10.31-2.66-5.92-4.44-9.56-15.47-9.49-28.79.07-14.25,4.33-28.03,11.69-37.83,14.23-18.96,34.85-19.67,40.34-19.52,27.87-38.89,48.43-79.41,61.12-120.44,1.37-4.44,5.65-10.51,10.44-12.98,5.96-3.08,11.96-3.09,16.44-.03,4.49,3.06,6.67,8.64,5.99,15.31-.12,1.14-.46,2.32-1.01,3.53-23.82,52.26-46.32,91.08-72.82,125.62,2.62,4.59,9.47,19.59,2.92,41.59-4.96,16.67-23.94,28.27-38.69,33.13-6.2,2.05-11.9,3.07-16.63,3.07ZM910.18,2398.5c-5.61,0-23.6,1.35-35.86,17.68-6.77,9.02-10.7,21.82-10.77,35.1-.06,11.54,3.02,21.62,7.65,25.1,3.55,2.66,12.69,2.22,22.75-1.11,13.7-4.52,31.27-15.12,35.73-30.09,7.15-24.02-3.08-38.95-3.18-39.1-.58-.82-.56-1.93.06-2.72,26.7-34.56,49.29-73.41,73.24-125.97.34-.75.55-1.46.62-2.1.5-4.94-.96-8.97-4.01-11.05-3.05-2.08-7.33-1.96-11.75.32-3.16,1.63-6.98,6.43-8.16,10.26-12.94,41.87-33.98,83.18-62.51,122.79-.47.66-1.25,1.02-2.07.94-.04,0-.66-.05-1.73-.05Z"/>
        </g>
      </g>
      <path d="M727.19,2393.55c35.76,166.38,265.8,172.16,290.93-1.93-29,50.26-255.16,47.84-290.93,1.93Z"/>
      <g>
        <path class="cls-2" d="M746.21,2407.5s24.34-15.48,85.45-19.12l-85.45,19.12Z"/>
        <path d="M746.21,2409.79c-.76,0-1.5-.38-1.94-1.07-.68-1.07-.36-2.48.71-3.16,1.01-.65,25.55-15.84,86.54-19.47,1.28-.09,2.35.89,2.43,2.15.08,1.26-.89,2.35-2.15,2.43-59.62,3.55-84.12,18.62-84.36,18.77-.38.24-.8.35-1.22.35Z"/>
      </g>
      <g>
        <path class="cls-2" d="M864.84,2384.74s19.42-1.21,40.06,0h-40.06Z"/>
        <path d="M864.83,2387.03c-1.2,0-2.21-.93-2.29-2.15-.08-1.26.88-2.35,2.15-2.43.19-.01,19.8-1.21,40.34,0,1.27.07,2.23,1.16,2.15,2.42-.08,1.26-1.16,2.25-2.42,2.15-20.26-1.19-39.59-.01-39.79,0-.05,0-.1,0-.15,0Z"/>
      </g>
      <g>
        <path class="cls-2" d="M962.36,2391.61s25.19,2.66,37.35,15.88l-37.35-15.88Z"/>
        <path d="M999.71,2409.79c-.62,0-1.24-.25-1.69-.74-11.42-12.42-35.66-15.13-35.9-15.16-1.26-.13-2.17-1.26-2.04-2.52.13-1.26,1.23-2.17,2.52-2.04,1.06.11,26.2,2.91,38.8,16.61.86.93.8,2.38-.14,3.24-.44.4-1,.6-1.55.6Z"/>
      </g>
    </g>
    <g>
      <g>
        <g>
          <path class="cls-2" d="M1590.64,1441.8c0,20.28-64.91,36.73-144.98,36.73s-146.29-15.14-146.29-35.43,66.22-38.03,146.29-38.03,144.98,16.44,144.98,36.73Z"/>
          <path d="M1445.66,1480.83c-72.03,0-148.58-13.22-148.58-37.72,0-22.23,66.65-40.32,148.58-40.32,72.39,0,147.27,14.6,147.27,39.02s-74.88,39.02-147.27,39.02ZM1445.66,1407.37c-82.42,0-144,18.87-144,35.74,0,16,57.86,33.14,144,33.14s142.69-17.81,142.69-34.44-57.34-34.44-142.69-34.44Z"/>
        </g>
        <g>
          <path class="cls-2" d="M1421.9,1449.92c-25.61-40.88-55.14-75.19-88.66-102.86-3.37-2.78-7.4-7.47-7.87-11.81-1.42-13.04,8.77-21.06,20.18-14.03,34.04,36,65.06,73.31,90.35,116.86,0,0,18.73-4.31,39.36,12.25,20.63,16.56,18.13,62.74,6.57,69.68-11.57,6.94-44.36-4.09-57.72-26.38-13.36-22.29-2.21-43.7-2.21-43.7Z"/>
          <g>
            <path class="cls-2" d="M1421.9,1449.92c-25.85-41.28-55.72-75.86-89.63-103.67-3.41-2.8-6.86-8.6-7.25-13-1.1-12.26,8.48-18.51,19.25-12.78.86.46,1.63,1.1,2.3,1.81,33.65,35.67,64.3,72.67,89.34,115.79,0,0,18.73-4.31,39.36,12.25,20.63,16.56,18.13,62.74,6.57,69.68-11.57,6.94-44.36-4.09-57.72-26.38-13.36-22.29-2.21-43.7-2.21-43.7Z"/>
            <path d="M1472.59,1524.35c-5.78,0-12.68-1.51-19.82-4.46-13.17-5.44-24.33-14.59-30.62-25.09-12.19-20.33-5.07-39.71-2.85-44.72-25.5-40.49-55.26-74.82-88.48-102.05-3.6-2.95-7.6-9.21-8.08-14.57-.6-6.68,1.65-12.24,6.17-15.24,4.53-3,10.52-2.92,16.44.23,1.01.53,1.98,1.3,2.89,2.26,39.41,41.78,66.87,77.27,88.85,114.84,5.24-.69,21.72-1.38,39.61,12.99,13.56,10.89,17.14,32.84,16.09,48.33-.86,12.56-4.51,21.94-9.77,25.1-2.66,1.6-6.25,2.38-10.42,2.38ZM1336.4,1320.62c-1.84,0-3.53.47-4.96,1.42-3.07,2.04-4.58,6.05-4.14,11.01.32,3.55,3.32,8.89,6.42,11.43,33.89,27.79,64.21,62.85,90.12,104.22.43.69.46,1.55.09,2.27-.11.2-10.37,20.59,2.14,41.46,5.8,9.68,16.17,18.14,28.44,23.21,10.66,4.41,21.17,5.36,26.13,2.38,3.8-2.28,6.84-10.91,7.56-21.48.98-14.39-2.2-34.66-14.38-44.44-19.44-15.61-37.24-11.84-37.42-11.8-.97.22-1.99-.22-2.49-1.08-21.93-37.76-49.39-73.34-89.02-115.37-.57-.6-1.14-1.06-1.71-1.36-2.35-1.25-4.67-1.88-6.79-1.88Z"/>
          </g>
        </g>
        <path class="cls-3" d="M1299.71,1444.7c35.76,166.38,265.8,172.16,290.92-1.93-29,50.26-255.16,47.84-290.92,1.93Z"/>
        <g>
          <path class="cls-2" d="M1318.73,1458.66s18.93-15.48,80.03-19.12l-80.03,19.12Z"/>
          <path d="M1318.73,1460.95c-.67,0-1.32-.29-1.78-.84-.8-.98-.66-2.43.32-3.23.8-.65,20.2-15.99,81.35-19.63,1.25-.1,2.35.89,2.43,2.15.08,1.26-.89,2.35-2.15,2.43-59.68,3.56-78.53,18.46-78.72,18.61-.43.35-.94.52-1.45.52Z"/>
        </g>
        <g>
          <path class="cls-2" d="M1534.89,1442.77s25.19,2.66,37.35,15.88l-37.35-15.88Z"/>
          <path d="M1572.23,1460.95c-.62,0-1.24-.25-1.69-.74-11.43-12.44-35.66-15.13-35.9-15.16-1.26-.13-2.17-1.26-2.04-2.52.13-1.26,1.26-2.17,2.52-2.04,1.06.11,26.2,2.91,38.8,16.61.86.93.8,2.38-.14,3.24-.44.4-1,.6-1.55.6Z"/>
        </g>
        <g>
          <path class="cls-2" d="M1517.73,1439.54s-26.71-4.6-40.2-4.87l40.2,4.87Z"/>
          <path d="M1517.74,1441.83c-.13,0-.26-.01-.39-.03-.26-.04-26.69-4.57-39.85-4.83-1.27-.03-2.27-1.07-2.25-2.34.02-1.27,1.04-2.26,2.34-2.25,13.51.27,39.44,4.71,40.54,4.9,1.25.21,2.08,1.4,1.87,2.65-.19,1.12-1.16,1.9-2.26,1.9Z"/>
        </g>
      </g>
      <path class="cls-2" d="M1907.97,1642.97c-.32,6.33-7.64,13.91-8.08,20.26-35.96,12.5-84.73,27.22-149.4,42.72-47.35-6.95-158.46-105.28-206.8-113.69l-.16-.05c-6.79-.64-25.8,21.35-71.55,10.41-13.53-3.23-27.79-11.51-34.9-16.6-5.37-3.81-11.9-11.14-17.18-17.7-5.69-7.02-9.95-13.14-9.95-13.14-4.77-5-1.1-13.09,5.48-12.15,8.35,1.19,29.9,11.53,29.9,11.53,0,0,13.83,7.54,31.87,12.7,1.67.32,3.69.48,6.05.41,10.09-.25,26.28-4.52,46.6-17.11,7.06-4.38,20.64-7.09,33.55,3.76,49.1,41.21,150.87,71.66,178.06,76.98,41.28,7.73,118.51-43,159.81-73.08,6.87,5.11,8.1,55.94,6.68,84.74Z"/>
      <path d="M1750.5,1708.25c-.11,0-.22,0-.33-.02-24.38-3.58-63.53-29.68-104.96-57.32-38.55-25.71-78.4-52.29-101.89-56.38-.04,0-.09-.02-.13-.03-1.16.03-3.76,1.38-6.49,2.81-10.63,5.55-30.42,15.87-65.22,7.55-13.31-3.18-27.55-11.13-35.7-16.97-5.86-4.16-12.82-12.16-17.63-18.13-5.2-6.41-9.28-12.17-9.95-13.13-2.87-3.11-3.5-7.46-1.61-11.13,1.79-3.48,5.3-5.3,9.2-4.74,8.6,1.23,29.68,11.31,30.57,11.74.24.13,13.94,7.54,31.51,12.57,1.41.26,3.26.39,5.36.32,5.77-.14,21.74-2.07,45.46-16.76,8.37-5.19,22.88-7.27,36.23,3.95,49.45,41.51,152.33,71.65,177.03,76.49,40.31,7.56,116.31-42.3,158.02-72.69,1.02-.74,2.46-.52,3.2.5.75,1.02.52,2.46-.5,3.2-39.31,28.64-108.81,74.3-152.16,74.3-3.3,0-6.45-.26-9.42-.82-24.97-4.89-128.97-35.39-179.11-77.48-11.48-9.65-23.81-7.95-30.87-3.57-23.79,14.74-40.13,17.26-47.75,17.45-2.39.07-4.6-.08-6.54-.45-18.28-5.22-31.97-12.63-32.54-12.94-.11-.05-21.23-10.15-29.13-11.28-1.92-.28-3.59.59-4.47,2.3-.77,1.49-.97,3.96.98,6,.08.09.15.18.22.27.04.06,4.29,6.14,9.85,13.01,4.63,5.76,11.28,13.42,16.72,17.28,6.3,4.51,20.57,13.01,34.11,16.24,33.14,7.92,51.93-1.89,62.03-7.16,4.08-2.13,6.75-3.55,9.2-3.31.14.01.28.04.42.08,24.36,4.25,64.63,31.1,103.57,57.07,38.95,25.98,79.23,52.84,102.65,56.53,56.39-13.53,106.43-27.85,148.74-42.55,1.19-.42,2.5.22,2.92,1.41.42,1.2-.22,2.5-1.41,2.92-42.56,14.79-92.9,29.19-149.61,42.79-.18.04-.36.06-.54.06Z"/>
    </g>
    <g>
      <g>
        <g>
          <path class="cls-2" d="M1350.02,1076.4c0,20.28-64.91,36.73-144.98,36.73s-146.29-15.14-146.29-35.43,66.22-38.03,146.29-38.03,144.98,16.44,144.98,36.73Z"/>
          <path d="M1205.04,1115.43c-72.03,0-148.58-13.22-148.58-37.72,0-22.23,66.65-40.32,148.58-40.32,72.39,0,147.27,14.6,147.27,39.02s-74.88,39.02-147.27,39.02ZM1205.04,1041.97c-82.42,0-144,18.87-144,35.74,0,16,57.86,33.14,144,33.14s142.69-17.81,142.69-34.44-57.34-34.44-142.69-34.44Z"/>
        </g>
        <g>
          <path class="cls-2" d="M1188.4,1081.08c25.82-40.75,44.02-82.2,54.51-124.38,1.05-4.24,3.55-9.9,7.26-12.2,11.15-6.91,22.78-1.18,21.37,12.15-17.78,46.25-38.04,90.33-66.41,131.95,0,0,11.98,15.03,5.94,40.79-6.03,25.76-48.76,43.44-60.02,36s-15.46-41.78-1.12-63.45,38.46-20.86,38.46-20.86Z"/>
          <g>
            <path class="cls-2" d="M1188.4,1081.08c26.07-41.14,44.37-83,54.81-125.6,1.05-4.29,4.8-9.9,8.6-12.15,10.58-6.28,20.35-.34,19.84,11.85-.04.98-.29,1.94-.64,2.86-17.65,45.75-37.79,89.37-65.87,130.57,0,0,11.98,15.03,5.94,40.79-6.03,25.76-48.76,43.44-60.02,36s-15.46-41.78-1.12-63.45,38.46-20.86,38.46-20.86Z"/>
            <path d="M1158.45,1169.4c-3.57,0-6.54-.69-8.66-2.09-6.17-4.08-10.46-14.88-11.18-28.18-.77-14.22,2.66-28.24,9.42-38.46,13.08-19.77,33.63-21.72,39.11-21.88,25.51-40.48,43.63-82.15,53.85-123.86,1.11-4.52,5.02-10.83,9.66-13.58,5.77-3.42,11.75-3.79,16.41-1.01,4.66,2.79,7.17,8.23,6.89,14.93-.05,1.13-.31,2.34-.79,3.58-20.67,53.58-40.83,93.67-65.23,129.72,2.88,4.43,10.62,18.99,5.39,41.34-3.97,16.93-22.23,29.64-36.66,35.38-6.85,2.72-13.14,4.11-18.2,4.11ZM1188.13,1083.37c-2.25,0-23.51.53-36.28,19.83-6.23,9.41-9.38,22.41-8.66,35.68.63,11.52,4.3,21.4,9.13,24.6,3.69,2.44,12.79,1.46,22.63-2.45,13.41-5.33,30.32-16.95,33.89-32.16,5.68-24.27-5.39-38.7-5.51-38.85-.62-.79-.66-1.89-.1-2.71,24.6-36.09,44.84-76.21,65.63-130.1.3-.77.46-1.49.49-2.13.21-4.97-1.49-8.9-4.66-10.8-3.16-1.89-7.44-1.52-11.71,1.02-3.06,1.82-6.59,6.83-7.54,10.73-10.43,42.56-28.97,85.05-55.1,126.29-.43.68-1.14,1.13-2.01,1.06-.01,0-.08,0-.19,0Z"/>
          </g>
        </g>
        <path class="cls-3" d="M1059.1,1079.3c35.76,166.38,265.8,172.16,290.93-1.93-29,50.26-255.16,47.84-290.93,1.93Z"/>
        <g>
          <path class="cls-2" d="M1078.11,1093.26s27.09-20.42,88.19-24.07l-88.19,24.07Z"/>
          <path d="M1078.11,1095.55c-.7,0-1.38-.32-1.83-.91-.76-1.01-.56-2.45.45-3.21,1.13-.85,28.34-20.88,89.43-24.52,1.22-.08,2.35.89,2.43,2.15.08,1.26-.89,2.35-2.15,2.43-59.55,3.55-86.68,23.41-86.95,23.61-.41.31-.9.46-1.38.46Z"/>
        </g>
        <g>
          <path class="cls-2" d="M1231.06,1069.19s19.44.83,39.84,4.19l-39.84-4.19Z"/>
          <path d="M1270.9,1075.68c-.12,0-.25,0-.38-.03-20.01-3.31-39.37-4.16-39.57-4.17-1.27-.05-2.25-1.12-2.19-2.39.05-1.27,1.22-2.22,2.39-2.19.2,0,19.82.87,40.12,4.22,1.25.21,2.09,1.39,1.89,2.64-.18,1.12-1.16,1.92-2.26,1.92Z"/>
        </g>
        <g>
          <path class="cls-2" d="M1294.27,1077.37s25.19,2.66,37.35,15.88l-37.35-15.88Z"/>
          <path d="M1331.62,1095.55c-.62,0-1.24-.25-1.69-.74-11.43-12.44-35.66-15.13-35.9-15.16-1.26-.13-2.17-1.26-2.04-2.52.13-1.26,1.25-2.16,2.52-2.04,1.06.11,26.2,2.91,38.79,16.61.86.93.8,2.38-.14,3.24-.44.4-1,.6-1.55.6Z"/>
        </g>
      </g>
      <path class="cls-2" d="M1796.77,1153.24c-36.94,30.57-90.48,61.62-182.92,94.52-57.65,11.76-227.23-55.52-286.64-45.06l-.21.02c-8.09,2.11-20.91,35.47-78.38,41.94-16.99,1.93-36.94-1.7-47.31-4.61-16.12-4.49-44.23-24.33-44.23-24.33-7.61-3.81-6.74-14.7,1.24-16.35,1.38-.28,3.12-.48,5.09-.6,12.5-.76,34.31,1.44,34.31,1.44,0,0,19.17,2.96,42.19,1.35,10.89-1.72,31.39-12.84,53.89-41.28,5.07-6.44,15.46-13.37,29.42-12.18,3.44.28,7.11,1.05,10.96,2.48,73.98,27.15,212.17,23.32,245.85,18.11,46.11-7.52,94.81-59.54,153.93-113.74,22.77,31.26,43.75,64.09,62.81,98.26Z"/>
      <path d="M1597.96,1251.42c-32.02,0-81.08-12.08-128.78-23.83-55.35-13.63-112.59-27.73-141.57-22.63-.02,0-.09.01-.15.02-1.44.48-3.84,3.1-6.62,6.12-9.93,10.81-28.4,30.94-71.97,35.84-16.56,1.88-36.32-1.35-48.18-4.68-15.9-4.43-42.41-22.89-44.8-24.57-4.44-2.3-6.9-6.88-6.27-11.71.59-4.53,3.74-7.93,8.23-8.85,1.5-.3,3.37-.52,5.42-.64,12.54-.77,33.77,1.36,34.67,1.45.31.04,19.32,2.91,41.81,1.35,10.59-1.68,30.79-13.29,52.25-40.41,5.6-7.12,16.77-14.28,31.41-13.04,3.8.3,7.69,1.18,11.56,2.61,72.77,26.71,216.02,24.08,249.3,17.19,25.94-5.37,95.12-57.83,148.05-112.26.88-.91,2.33-.93,3.24-.04.91.88.93,2.33.04,3.24-54.39,55.93-123.27,107.93-150.41,113.55-33.61,6.96-178.29,9.61-251.81-17.37-3.48-1.28-6.96-2.07-10.35-2.34-12.8-1.1-22.57,5.12-27.43,11.31-22.26,28.13-43.18,40.21-55.33,42.12-23.22,1.63-42.11-1.23-42.9-1.35-.1,0-21.66-2.16-33.82-1.42-1.85.11-3.5.3-4.78.56-2.54.53-4.26,2.38-4.6,4.95-.29,2.22.57,5.41,3.93,7.1.1.05.2.11.3.18.28.2,27.98,19.66,43.53,23.99,11.47,3.22,30.51,6.34,46.43,4.54,41.85-4.71,59.58-24.02,69.1-34.39,3.75-4.08,6.23-6.78,8.96-7.5.11-.03.22-.05.33-.06,29.98-5.27,87.7,8.95,143.52,22.69,56.22,13.84,114.34,28.15,142.96,22.41,81.35-28.71,139.21-58.61,182.07-94.07.98-.81,2.42-.67,3.23.3.81.98.67,2.42-.3,3.23-43.32,35.84-101.66,66-183.62,94.92-.1.04-.2.06-.3.09-4.74.97-10.24,1.41-16.35,1.41Z"/>
    </g>
    <g>
      <g>
        <path d="M1364.64,848.82c-.44,0-.89-.13-1.28-.39-1.12-.76-113.98-76.06-289.64-98.96-1.26-.16-2.14-1.31-1.98-2.57.16-1.26,1.3-2.14,2.57-1.98,176.81,23.04,290.5,98.94,291.62,99.71,1.05.71,1.32,2.14.61,3.18-.44.65-1.17,1.01-1.9,1.01Z"/>
        <path d="M1498.69,902.72c-.59,0-1.18-.23-1.63-.68-138.01-139.1-313.87-170.22-315.63-170.52-1.25-.21-2.09-1.4-1.88-2.64s1.39-2.1,2.64-1.88c1.77.3,179.04,31.63,318.12,171.82.89.9.89,2.35-.01,3.24-.45.44-1.03.67-1.61.67Z"/>
      </g>
      <g>
        <path d="M328.32,869.59c-.43,0-.87-.12-1.26-.38-1.06-.69-1.35-2.12-.66-3.17l6.69-10.2c.69-1.06,2.12-1.35,3.18-.66,1.06.69,1.35,2.12.66,3.17l-6.69,10.2c-.44.67-1.17,1.03-1.92,1.03Z"/>
        <path d="M304.9,905.28c-.43,0-.87-.12-1.26-.38-1.06-.69-1.35-2.12-.66-3.18l6.69-10.2c.7-1.06,2.12-1.35,3.18-.66,1.06.69,1.35,2.12.66,3.18l-6.69,10.2c-.44.67-1.17,1.03-1.92,1.03Z"/>
        <path d="M307.51,873.92c-.44,0-.89-.13-1.28-.39l-9.96-6.73c-1.05-.71-1.33-2.13-.62-3.18.71-1.05,2.13-1.32,3.18-.62l9.96,6.73c1.05.71,1.33,2.13.62,3.18-.44.66-1.16,1.01-1.9,1.01Z"/>
        <path d="M342.36,897.47c-.44,0-.89-.13-1.28-.39l-9.96-6.73c-1.05-.71-1.33-2.13-.62-3.18.7-1.05,2.14-1.32,3.18-.62l9.96,6.73c1.05.71,1.33,2.13.62,3.18-.44.66-1.16,1.01-1.9,1.01Z"/>
      </g>
      <g>
        <path d="M989.42,721.09c-.43,0-.87-.12-1.26-.38-1.06-.69-1.35-2.12-.66-3.17l6.69-10.2c.69-1.06,2.12-1.35,3.18-.66,1.06.69,1.35,2.12.66,3.17l-6.69,10.2c-.44.67-1.17,1.03-1.92,1.03Z"/>
        <path d="M966,756.79c-.43,0-.87-.12-1.26-.38-1.06-.69-1.35-2.12-.66-3.18l6.69-10.2c.7-1.06,2.12-1.35,3.18-.66,1.06.69,1.35,2.12.66,3.18l-6.69,10.2c-.44.67-1.17,1.03-1.92,1.03Z"/>
        <path d="M968.61,725.43c-.44,0-.89-.13-1.28-.39l-9.96-6.73c-1.05-.71-1.33-2.14-.62-3.18.71-1.05,2.14-1.32,3.18-.62l9.96,6.73c1.05.71,1.33,2.14.62,3.18-.44.66-1.16,1.01-1.9,1.01Z"/>
        <path d="M1003.46,748.98c-.44,0-.89-.13-1.28-.39l-9.96-6.73c-1.05-.71-1.33-2.13-.62-3.18.71-1.05,2.13-1.32,3.18-.62l9.96,6.73c1.05.71,1.33,2.13.62,3.18-.44.65-1.16,1.01-1.9,1.01Z"/>
      </g>
      <path d="M1423.11,912.63c-1.11,0-2.23-.1-3.34-.32-4.77-.91-8.92-3.66-11.66-7.75-5.59-8.34-3.5-19.73,4.66-25.37,3.93-2.72,8.68-3.73,13.38-2.84,4.77.91,8.92,3.66,11.66,7.75,5.59,8.34,3.5,19.72-4.66,25.37-3,2.08-6.48,3.16-10.04,3.16ZM1422.83,880.63c-2.64,0-5.22.8-7.44,2.34-6.11,4.23-7.67,12.77-3.46,19.05,2.05,3.06,5.14,5.12,8.7,5.79,3.49.66,7-.09,9.92-2.1,6.11-4.23,7.67-12.78,3.46-19.05-2.05-3.06-5.14-5.12-8.7-5.79-.83-.16-1.65-.23-2.47-.23ZM1414.08,881.08h.02-.02Z"/>
      <circle cx="202.07" cy="1006.39" r="22.56" transform="translate(-823.9 974.15) rotate(-76.85)"/>
      <circle cx="841.23" cy="751.15" r="22.56" transform="translate(-284.75 814.85) rotate(-45)"/>
    </g>
  </g>
  <rect class="cls-1" x="784.41" width="169.84" height="169.84"/>
  <rect class="cls-3" x="784.41" y="196.09" width="169.84" height="169.84"/>
</svg>